RobotoCondensed-Thin.ufo
<glyph name="quotesingle" format="2">
  <advance width="341"/>
  <unicode hex="0027"/>
  <outline>
    <contour>
      <point x="202" y="1536" type="line"/>
      <point x="144" y="1536" type="line"/>
      <point x="144" y="1365" type="line"/>
      <point x="134" y="1123" type="line"/>
      <point x="187" y="1123" type="line"/>
      <point x="202" y="1365" type="line"/>
    </contour>
  </outline>
</glyph>
<glyph name="e" format="2">
  <advance width="925"/>
  <unicode hex="0065"/>
  <anchor x="500" y="1292" name="top"/>
  <anchor x="499" y="5" name="bottom"/>
  <anchor x="898" y="1600" name="top_dd"/>
  <anchor x="898" y="-407" name="bottom_dd"/>
  <anchor x="805" y="654" name="rhotichook"/>
  <anchor x="898" y="1292" name="top0315"/>
  <anchor x="500" y="1292" name="parent_top"/>
  <outline>
    <contour>
      <point x="497" y="-22" type="curve"/>
      <point x="643" y="-22"/>
      <point x="736" y="32"/>
      <point x="796" y="109" type="curve"/>
      <point x="767" y="140" type="line"/>
      <point x="693" y="54"/>
      <point x="602" y="30"/>
      <point x="498" y="30" type="curve" smooth="yes"/>
      <point x="297" y="30"/>
      <point x="145" y="183"/>
      <point x="145" y="480" type="curve" smooth="yes"/>
      <point x="145" y="602" type="line" smooth="yes"/>
      <point x="145" y="891"/>
      <point x="280" y="1051"/>
      <point x="479" y="1051" type="curve"/>
      <point x="661" y="1051"/>
      <point x="777" y="919"/>
      <point x="777" y="661" type="curve"/>
      <point x="777" y="631" type="line"/>
      <point x="127" y="631" type="line"/>
      <point x="127" y="580" type="line"/>
      <point x="829" y="580" type="line"/>
      <point x="829" y="660" type="line" smooth="yes"/>
      <point x="829" y="976"/>
      <point x="687" y="1102"/>
      <point x="479" y="1102" type="curve" smooth="yes"/>
      <point x="267" y="1102"/>
      <point x="93" y="939"/>
      <point x="93" y="602" type="curve" smooth="yes"/>
      <point x="93" y="480" type="line" smooth="yes"/>
      <point x="93" y="143"/>
      <point x="271" y="-22"/>
    </contour>
  </outline>
</glyph>
<glyph name="l" format="2">
  <advance width="399"/>
  <unicode hex="006C"/>
  <anchor x="202" y="1671" name="top"/>
  <anchor x="202" y="10" name="bottom"/>
  <anchor x="426" y="1502" name="marktop"/>
  <anchor x="380" y="1600" name="top_dd"/>
  <anchor x="380" y="-407" name="bottom_dd"/>
  <anchor x="380" y="1671" name="top0315"/>
  <anchor x="202" y="1671" name="parent_top"/>
  <outline>
    <contour>
      <point x="227" y="1536" type="line"/>
      <point x="174" y="1536" type="line"/>
      <point x="174" y="0" type="line"/>
      <point x="227" y="0" type="line"/>
    </contour>
  </outline>
</glyph>
<glyph name="Ohorn" format="2">
  <advance width="1267"/>
  <unicode hex="01A0"/>
  <anchor x="633" y="1622" name="top"/>
  <anchor x="606" y="0" name="bottom"/>
  <anchor x="1248" y="1622" name="top0315"/>
  <anchor x="633" y="1622" name="parent_top"/>
  <outline>
    <contour>
      <point x="1205" y="1539" type="line"/>
      <point x="1205" y="1345"/>
      <point x="1162" y="1235"/>
      <point x="986" y="1235" type="curve"/>
      <point x="986" y="1184" type="line"/>
      <point x="1184" y="1184"/>
      <point x="1257" y="1307"/>
      <point x="1257" y="1539" type="curve"/>
    </contour>
    <contour>
      <point x="1089" y="839" type="line"/>
      <point x="1089" y="1217"/>
      <point x="907" y="1476"/>
      <point x="620" y="1476" type="curve" smooth="yes"/>
      <point x="339" y="1476"/>
      <point x="155" y="1217"/>
      <point x="155" y="839" type="curve"/>
      <point x="155" y="617" type="line"/>
      <point x="155" y="238"/>
      <point x="340" y="-20"/>
      <point x="622" y="-20" type="curve" smooth="yes"/>
      <point x="907" y="-20"/>
      <point x="1089" y="238"/>
      <point x="1089" y="617" type="curve"/>
    </contour>
    <contour>
      <point x="1038" y="617" type="line"/>
      <point x="1038" y="273"/>
      <point x="886" y="31"/>
      <point x="622" y="31" type="curve" smooth="yes"/>
      <point x="362" y="31"/>
      <point x="208" y="273"/>
      <point x="208" y="617" type="curve" smooth="yes"/>
      <point x="208" y="841" type="line" smooth="yes"/>
      <point x="208" y="1182"/>
      <point x="359" y="1425"/>
      <point x="620" y="1425" type="curve" smooth="yes"/>
      <point x="885" y="1425"/>
      <point x="1038" y="1182"/>
      <point x="1038" y="841" type="curve"/>
    </contour>
  </outline>
</glyph>
<glyph name="uni01C6" format="2">
  <advance width="1657"/>
  <unicode hex="01C6"/>
  <outline>
    <contour>
      <point x="777" y="210" type="line"/>
      <point x="778" y="0" type="line"/>
      <point x="829" y="0" type="line"/>
      <point x="829" y="1560" type="line"/>
      <point x="777" y="1560" type="line"/>
    </contour>
    <contour>
      <point x="121" y="531" type="line"/>
      <point x="121" y="201"/>
      <point x="250" y="-22"/>
      <point x="467" y="-22" type="curve" smooth="yes"/>
      <point x="675" y="-22"/>
      <point x="794" y="133"/>
      <point x="823" y="298" type="curve"/>
      <point x="823" y="750" type="line"/>
      <point x="784" y="949"/>
      <point x="671" y="1102"/>
      <point x="469" y="1102" type="curve" smooth="yes"/>
      <point x="250" y="1102"/>
      <point x="121" y="892"/>
      <point x="121" y="552" type="curve" smooth="yes"/>
    </contour>
    <contour>
      <point x="176" y="552" type="line"/>
      <point x="176" y="841"/>
      <point x="269" y="1052"/>
      <point x="470" y="1052" type="curve" smooth="yes"/>
      <point x="697" y="1052"/>
      <point x="769" y="844"/>
      <point x="793" y="712" type="curve"/>
      <point x="793" y="327" type="line"/>
      <point x="763" y="162"/>
      <point x="659" y="29"/>
      <point x="468" y="29" type="curve" smooth="yes"/>
      <point x="269" y="29"/>
      <point x="176" y="240"/>
      <point x="176" y="531" type="curve" smooth="yes"/>
    </contour>
    <contour>
      <point x="1595" y="51" type="line"/>
      <point x="895" y="51" type="line"/>
      <point x="895" y="0" type="line"/>
      <point x="1595" y="0" type="line"/>
    </contour>
    <contour>
      <point x="1547" y="1037" type="line"/>
      <point x="1547" y="1082" type="line"/>
      <point x="1514" y="1082" type="line"/>
      <point x="878" y="42" type="line"/>
      <point x="878" y="0" type="line"/>
      <point x="912" y="0" type="line"/>
    </contour>
    <contour>
      <point x="1522" y="1082" type="line"/>
      <point x="904" y="1082" type="line"/>
      <point x="904" y="1030" type="line"/>
      <point x="1522" y="1030" type="line"/>
    </contour>
    <contour>
      <point x="1076" y="1472" type="line"/>
      <point x="1013" y="1472" type="line"/>
      <point x="1013" y="1460" type="line"/>
      <point x="1196" y="1252" type="line"/>
      <point x="1266" y="1252" type="line"/>
      <point x="1446" y="1457" type="line"/>
      <point x="1446" y="1472" type="line"/>
      <point x="1385" y="1472" type="line"/>
      <point x="1230" y="1285" type="line"/>
    </contour>
  </outline>
</glyph>
<glyph name="uni02C1" format="2">
  <advance width="670"/>
  <unicode hex="02C1"/>
  <outline>
    <contour>
      <point x="618" y="1527" type="line"/>
      <point x="612" y="1711"/>
      <point x="497" y="1807"/>
      <point x="364" y="1807" type="curve" smooth="yes"/>
      <point x="187" y="1807"/>
      <point x="86" y="1642"/>
      <point x="86" y="1408" type="curve" smooth="yes"/>
      <point x="86" y="1313" type="line" smooth="yes"/>
      <point x="86" y="1078"/>
      <point x="172" y="899"/>
      <point x="365" y="899" type="curve" smooth="yes"/>
      <point x="383" y="899" type="line"/>
      <point x="383" y="949" type="line"/>
      <point x="365" y="949" type="line" smooth="yes"/>
      <point x="199" y="949"/>
      <point x="138" y="1111"/>
      <point x="138" y="1313" type="curve" smooth="yes"/>
      <point x="138" y="1408" type="line" smooth="yes"/>
      <point x="138" y="1608"/>
      <point x="214" y="1754"/>
      <point x="364" y="1754" type="curve" smooth="yes"/>
      <point x="465" y="1754"/>
      <point x="561" y="1690"/>
      <point x="569" y="1527" type="curve"/>
    </contour>
    <contour>
      <point x="338" y="949" type="line"/>
      <point x="338" y="651" type="line"/>
      <point x="390" y="651" type="line"/>
      <point x="390" y="949" type="line"/>
    </contour>
  </outline>
</glyph>
<glyph name="caron" format="2">
  <advance width="693"/>
  <unicode hex="02C7"/>
  <anchor x="358" y="1538" name="mkmktop_acc"/>
  <outline>
    <contour>
      <point x="196" y="1506" type="line"/>
      <point x="142" y="1506" type="line"/>
      <point x="142" y="1496" type="line"/>
      <point x="330" y="1242" type="line"/>
      <point x="384" y="1242" type="line"/>
      <point x="571" y="1491" type="line"/>
      <point x="571" y="1506" type="line"/>
      <point x="521" y="1506" type="line"/>
      <point x="357" y="1288" type="line"/>
    </contour>
  </outline>
</glyph>
<glyph name="uni0353" format="2">
  <unicode hex="0353"/>
  <anchor x="-456" y="0" name="_bottom"/>
  <anchor x="-456" y="-411" name="bottom"/>
  <outline>
    <contour>
      <point x="-608" y="-519" type="line"/>
      <point x="-267" y="-103" type="line"/>
      <point x="-302" y="-67" type="line"/>
      <point x="-641" y="-483" type="line"/>
    </contour>
    <contour>
      <point x="-302" y="-518" type="line"/>
      <point x="-267" y="-480" type="line"/>
      <point x="-608" y="-64" type="line"/>
      <point x="-643" y="-102" type="line"/>
    </contour>
  </outline>
</glyph>
<glyph name="uni036E" format="2">
  <unicode hex="036E"/>
  <anchor x="-459" y="1170" name="_top"/>
  <anchor x="-459" y="1818" name="_mkmktop"/>
  <outline>
    <contour>
      <point x="-439" y="1314" type="line"/>
      <point x="-472" y="1203" type="line"/>
      <point x="-443" y="1203" type="line"/>
      <point x="-264" y="1755" type="line"/>
      <point x="-302" y="1755" type="line"/>
    </contour>
    <contour>
      <point x="-613" y="1755" type="line"/>
      <point x="-653" y="1755" type="line"/>
      <point x="-476" y="1203" type="line"/>
      <point x="-446" y="1203" type="line"/>
      <point x="-475" y="1314" type="line"/>
    </contour>
  </outline>
</glyph>
<glyph name="uni036F" format="2">
  <unicode hex="036F"/>
  <anchor x="-458" y="1170" name="_top"/>
  <anchor x="-458" y="1818" name="_mkmktop"/>
  <outline>
    <contour>
      <point x="-595" y="1755" type="line"/>
      <point x="-637" y="1755" type="line"/>
      <point x="-477" y="1487" type="line"/>
      <point x="-645" y="1203" type="line"/>
      <point x="-604" y="1203" type="line"/>
      <point x="-458" y="1457" type="line"/>
      <point x="-310" y="1203" type="line"/>
      <point x="-267" y="1203" type="line"/>
      <point x="-436" y="1487" type="line"/>
      <point x="-275" y="1755" type="line"/>
      <point x="-318" y="1755" type="line"/>
      <point x="-456" y="1512" type="line"/>
    </contour>
  </outline>
</glyph>
<glyph name="dieresistonos" format="2">
  <advance width="863"/>
  <unicode hex="0385"/>
  <outline>
    <contour>
      <point x="229" y="1309" type="curve" smooth="yes"/>
      <point x="261" y="1309"/>
      <point x="288" y="1334"/>
      <point x="288" y="1365" type="curve" smooth="yes"/>
      <point x="288" y="1393"/>
      <point x="261" y="1417"/>
      <point x="229" y="1417" type="curve" smooth="yes"/>
      <point x="194" y="1417"/>
      <point x="171" y="1393"/>
      <point x="171" y="1365" type="curve" smooth="yes"/>
      <point x="171" y="1334"/>
      <point x="194" y="1309"/>
    </contour>
    <contour>
      <point x="426" y="1267" type="line"/>
      <point x="512" y="1667" type="line"/>
      <point x="437" y="1667" type="line"/>
      <point x="397" y="1272" type="line"/>
    </contour>
    <contour>
      <point x="631" y="1309" type="curve" smooth="yes"/>
      <point x="666" y="1309"/>
      <point x="690" y="1334"/>
      <point x="690" y="1365" type="curve" smooth="yes"/>
      <point x="690" y="1394"/>
      <point x="666" y="1419"/>
      <point x="631" y="1419" type="curve" smooth="yes"/>
      <point x="599" y="1419"/>
      <point x="574" y="1394"/>
      <point x="574" y="1365" type="curve" smooth="yes"/>
      <point x="574" y="1334"/>
      <point x="599" y="1309"/>
    </contour>
  </outline>
</glyph>
<glyph name="Xi" format="2">
  <advance width="982"/>
  <unicode hex="039E"/>
  <outline>
    <contour>
      <point x="87" y="0" type="line"/>
      <point x="895" y="0" type="line"/>
      <point x="895" y="59" type="line"/>
      <point x="87" y="59" type="line"/>
    </contour>
    <contour>
      <point x="189" y="716" type="line"/>
      <point x="793" y="716" type="line"/>
      <point x="793" y="775" type="line"/>
      <point x="189" y="775" type="line"/>
    </contour>
    <contour>
      <point x="87" y="1397" type="line"/>
      <point x="895" y="1397" type="line"/>
      <point x="895" y="1456" type="line"/>
      <point x="87" y="1456" type="line"/>
    </contour>
  </outline>
</glyph>
<glyph name="delta" format="2">
  <advance width="1006"/>
  <unicode hex="03B4"/>
  <outline>
    <contour>
      <point x="498" y="-22" type="curve"/>
      <point x="749" y="-22"/>
      <point x="888" y="186"/>
      <point x="888" y="472" type="curve"/>
      <point x="888" y="481" type="line"/>
      <point x="888" y="769"/>
      <point x="764" y="901"/>
      <point x="585" y="1014" type="curve" smooth="yes"/>
      <point x="358" y="1157"/>
      <point x="322" y="1223"/>
      <point x="322" y="1319" type="curve"/>
      <point x="322" y="1423"/>
      <point x="378" y="1506"/>
      <point x="566" y="1506" type="curve"/>
      <point x="674" y="1506"/>
      <point x="750" y="1472"/>
      <point x="800" y="1434" type="curve"/>
      <point x="828" y="1477" type="line"/>
      <point x="780" y="1517"/>
      <point x="686" y="1557"/>
      <point x="569" y="1557" type="curve"/>
      <point x="376" y="1557"/>
      <point x="270" y="1471"/>
      <point x="270" y="1318" type="curve"/>
      <point x="270" y="1204"/>
      <point x="330" y="1113"/>
      <point x="537" y="992" type="curve" smooth="yes"/>
      <point x="766" y="858"/>
      <point x="837" y="689"/>
      <point x="837" y="478" type="curve"/>
      <point x="837" y="472" type="line"/>
      <point x="837" y="220"/>
      <point x="719" y="30"/>
      <point x="499" y="30" type="curve"/>
      <point x="248" y="30"/>
      <point x="168" y="253"/>
      <point x="168" y="474" type="curve"/>
      <point x="168" y="494" type="line"/>
      <point x="168" y="743"/>
      <point x="296" y="963"/>
      <point x="592" y="982" type="curve"/>
      <point x="539" y="1020" type="line"/>
      <point x="222" y="976"/>
      <point x="116" y="733"/>
      <point x="116" y="492" type="curve"/>
      <point x="116" y="476" type="line"/>
      <point x="116" y="175"/>
      <point x="245" y="-22"/>
    </contour>
  </outline>
</glyph>
<glyph name="pi" format="2">
  <advance width="977"/>
  <unicode hex="03C0"/>
  <outline>
    <contour>
      <point x="33.0" y="1025" type="line"/>
      <point x="958" y="1025" type="line"/>
      <point x="958" y="1082" type="line"/>
      <point x="33.0" y="1082" type="line"/>
    </contour>
    <contour>
      <point x="161" y="0.0" type="line"/>
      <point x="214" y="0.0" type="line"/>
      <point x="214" y="1054" type="line"/>
      <point x="161" y="1054" type="line"/>
    </contour>
    <contour>
      <point x="902" y="-20" type="curve"/>
      <point x="911" y="-20"/>
      <point x="942" y="-19"/>
      <point x="967" y="-9" type="curve"/>
      <point x="966" y="42" type="line"/>
      <point x="944" y="33"/>
      <point x="925" y="31"/>
      <point x="905" y="31" type="curve"/>
      <point x="851.0" y="31"/>
      <point x="831.0" y="63.0"/>
      <point x="831" y="140" type="curve"/>
      <point x="831" y="1054" type="line"/>
      <point x="778" y="1054" type="line"/>
      <point x="778" y="129" type="line"/>
      <point x="778.0" y="41.0"/>
      <point x="811" y="-20"/>
    </contour>
  </outline>
</glyph>
<glyph name="sigma" format="2">
  <advance width="1050"/>
  <unicode hex="03C3"/>
  <outline>
    <contour>
      <point x="507" y="-22" type="curve" smooth="yes"/>
      <point x="745" y="-22"/>
      <point x="894" y="204"/>
      <point x="894" y="513" type="curve" smooth="yes"/>
      <point x="894" y="542" type="line" smooth="yes"/>
      <point x="894" y="764"/>
      <point x="820" y="996"/>
      <point x="608" y="1047" type="curve"/>
      <point x="608" y="1025" type="line"/>
      <point x="967" y="1025" type="line"/>
      <point x="967" y="1082" type="line"/>
      <point x="582" y="1082" type="line"/>
      <point x="278" y="1082"/>
      <point x="116" y="916"/>
      <point x="116" y="538" type="curve" smooth="yes"/>
      <point x="116" y="509" type="line" smooth="yes"/>
      <point x="116" y="177"/>
      <point x="241" y="-22"/>
    </contour>
    <contour>
      <point x="507" y="30" type="curve" smooth="yes"/>
      <point x="273" y="30"/>
      <point x="168" y="211"/>
      <point x="168" y="505" type="curve" smooth="yes"/>
      <point x="168" y="541" type="line" smooth="yes"/>
      <point x="168" y="819"/>
      <point x="258" y="1032"/>
      <point x="562" y="1032" type="curve"/>
      <point x="723" y="1002"/>
      <point x="843" y="831"/>
      <point x="843" y="545" type="curve" smooth="yes"/>
      <point x="843" y="509" type="line" smooth="yes"/>
      <point x="843" y="281"/>
      <point x="734" y="30"/>
    </contour>
  </outline>
</glyph>
<glyph name="upsilon" format="2">
  <advance width="986"/>
  <unicode hex="03C5"/>
  <anchor x="493" y="1082" name="GRK_top"/>
  <outline>
    <contour>
      <point x="493" y="-20" type="curve"/>
      <point x="671" y="-20"/>
      <point x="827" y="50"/>
      <point x="827" y="372" type="curve"/>
      <point x="827" y="1082" type="line"/>
      <point x="774" y="1082" type="line"/>
      <point x="774" y="376" type="line"/>
      <point x="774" y="147"/>
      <point x="696" y="31"/>
      <point x="493" y="31" type="curve"/>
      <point x="290" y="31"/>
      <point x="212" y="147"/>
      <point x="212" y="376" type="curve"/>
      <point x="212" y="1082" type="line"/>
      <point x="159" y="1082" type="line"/>
      <point x="159" y="372" type="line"/>
      <point x="159" y="50"/>
      <point x="315" y="-20"/>
    </contour>
  </outline>
</glyph>
<glyph name="psi" format="2">
  <advance width="1269"/>
  <unicode hex="03C8"/>
  <outline>
    <contour>
      <point x="608" y="-416" type="line"/>
      <point x="661" y="-416" type="line"/>
      <point x="661" y="-20" type="line"/>
      <point x="912" y="-9"/>
      <point x="1110" y="80"/>
      <point x="1110" y="480" type="curve" smooth="yes"/>
      <point x="1110" y="1082" type="line"/>
      <point x="1057" y="1082" type="line"/>
      <point x="1057" y="480" type="line"/>
      <point x="1057" y="255"/>
      <point x="1003" y="43"/>
      <point x="661" y="31" type="curve"/>
      <point x="661" y="1536" type="line"/>
      <point x="608" y="1536" type="line"/>
      <point x="608" y="31" type="line"/>
      <point x="266" y="43"/>
      <point x="212" y="255"/>
      <point x="212" y="480" type="curve"/>
      <point x="212" y="1082" type="line"/>
      <point x="159" y="1082" type="line"/>
      <point x="159" y="480" type="line" smooth="yes"/>
      <point x="159" y="80"/>
      <point x="357" y="-9"/>
      <point x="608" y="-20" type="curve"/>
    </contour>
  </outline>
</glyph>
<glyph name="uni03D6" format="2">
  <advance width="1405"/>
  <unicode hex="03D6"/>
  <anchor x="708" y="1269" name="top"/>
  <anchor x="1386" y="1269" name="top0315"/>
  <anchor x="708" y="1269" name="parent_top"/>
  <outline>
    <contour>
      <point x="1362" y="1084" type="line"/>
      <point x="55" y="1084" type="line"/>
      <point x="55" y="1031" type="line"/>
      <point x="1362" y="1031" type="line"/>
    </contour>
    <contour>
      <point x="1111" y="1082" type="line"/>
      <point x="1183" y="922"/>
      <point x="1240" y="727"/>
      <point x="1240" y="498" type="curve"/>
      <point x="1240" y="262"/>
      <point x="1162" y="30"/>
      <point x="980" y="30" type="curve" smooth="yes"/>
      <point x="835" y="30"/>
      <point x="728" y="159"/>
      <point x="728" y="486" type="curve"/>
      <point x="728" y="775" type="line"/>
      <point x="678" y="775" type="line"/>
      <point x="678" y="488" type="line"/>
      <point x="678" y="127"/>
      <point x="799" y="-19"/>
      <point x="981" y="-19" type="curve" smooth="yes"/>
      <point x="1184" y="-19"/>
      <point x="1292" y="199"/>
      <point x="1292" y="501" type="curve"/>
      <point x="1292" y="784"/>
      <point x="1230" y="940"/>
      <point x="1174" y="1082" type="curve"/>
    </contour>
    <contour>
      <point x="232" y="1082" type="line"/>
      <point x="177" y="940"/>
      <point x="115" y="784"/>
      <point x="115" y="501" type="curve"/>
      <point x="115" y="199"/>
      <point x="223" y="-19"/>
      <point x="424" y="-19" type="curve" smooth="yes"/>
      <point x="605" y="-19"/>
      <point x="727" y="127"/>
      <point x="727" y="488" type="curve"/>
      <point x="727" y="775" type="line"/>
      <point x="676" y="775" type="line"/>
      <point x="676" y="486" type="line"/>
      <point x="676" y="159"/>
      <point x="572" y="30"/>
      <point x="425" y="30" type="curve" smooth="yes"/>
      <point x="244" y="30"/>
      <point x="166" y="262"/>
      <point x="166" y="498" type="curve"/>
      <point x="166" y="727"/>
      <point x="224" y="922"/>
      <point x="294" y="1082" type="curve"/>
    </contour>
  </outline>
</glyph>
<glyph name="uni042E" format="2">
  <advance width="1643"/>
  <unicode hex="042E"/>
  <anchor x="796" y="1600" name="top"/>
  <anchor x="1624" y="1600" name="top0315"/>
  <anchor x="796" y="1600" name="parent_top"/>
  <outline>
    <contour>
      <point x="269" y="1456" type="line"/>
      <point x="216" y="1456" type="line"/>
      <point x="216" y="0" type="line"/>
      <point x="269" y="0" type="line"/>
    </contour>
    <contour>
      <point x="575" y="787" type="line"/>
      <point x="258" y="787" type="line"/>
      <point x="258" y="736" type="line"/>
      <point x="575" y="736" type="line"/>
    </contour>
    <contour>
      <point x="1468" y="914" type="line"/>
      <point x="1468" y="1270"/>
      <point x="1293" y="1476"/>
      <point x="1006" y="1476" type="curve" smooth="yes"/>
      <point x="722" y="1476"/>
      <point x="549" y="1270"/>
      <point x="549" y="914" type="curve"/>
      <point x="549" y="541" type="line"/>
      <point x="549" y="186"/>
      <point x="724" y="-22"/>
      <point x="1009" y="-22" type="curve" smooth="yes"/>
      <point x="1294" y="-22"/>
      <point x="1468" y="186"/>
      <point x="1468" y="541" type="curve"/>
    </contour>
    <contour>
      <point x="1415" y="541" type="line"/>
      <point x="1415" y="221"/>
      <point x="1272" y="30"/>
      <point x="1009" y="30" type="curve" smooth="yes"/>
      <point x="748" y="30"/>
      <point x="602" y="221"/>
      <point x="602" y="541" type="curve" smooth="yes"/>
      <point x="602" y="916" type="line" smooth="yes"/>
      <point x="602" y="1234"/>
      <point x="746" y="1425"/>
      <point x="1006" y="1425" type="curve" smooth="yes"/>
      <point x="1270" y="1425"/>
      <point x="1415" y="1234"/>
      <point x="1415" y="916" type="curve"/>
    </contour>
  </outline>
</glyph>
<glyph name="uni0462" format="2">
  <advance width="1078"/>
  <unicode hex="0462"/>
  <outline>
    <contour>
      <point x="199" y="786" type="line"/>
      <point x="199" y="734" type="line"/>
      <point x="547" y="734" type="line"/>
      <point x="794" y="734"/>
      <point x="894" y="573"/>
      <point x="894" y="394" type="curve"/>
      <point x="894" y="210"/>
      <point x="794" y="51"/>
      <point x="547" y="51" type="curve"/>
      <point x="235" y="51" type="line"/>
      <point x="235" y="1456" type="line"/>
      <point x="181" y="1456" type="line"/>
      <point x="181" y="0" type="line"/>
      <point x="547" y="0" type="line"/>
      <point x="810" y="0"/>
      <point x="947" y="162"/>
      <point x="947" y="392" type="curve"/>
      <point x="947" y="623"/>
      <point x="812" y="786"/>
      <point x="547" y="786" type="curve"/>
    </contour>
    <contour>
      <point x="547" y="1202" type="line"/>
      <point x="45" y="1202" type="line"/>
      <point x="45" y="1151" type="line"/>
      <point x="547" y="1151" type="line"/>
    </contour>
  </outline>
</glyph>
<glyph name="uni0483" format="2">
  <unicode hex="0483"/>
  <anchor x="-426" y="1190" name="_top"/>
  <outline>
    <contour>
      <point x="-204" y="1364" type="line"/>
      <point x="-204" y="1522" type="line"/>
      <point x="-256" y="1522" type="line"/>
      <point x="-256" y="1414" type="line"/>
      <point x="-668" y="1414" type="line"/>
      <point x="-669" y="1244" type="line"/>
      <point x="-613" y="1243" type="line"/>
      <point x="-613" y="1364" type="line"/>
    </contour>
  </outline>
</glyph>
<glyph name="uni0486" format="2">
  <unicode hex="0486"/>
  <anchor x="-419" y="1290" name="_top"/>
  <outline>
    <contour>
      <point x="-349" y="1500" type="line"/>
      <point x="-349" y="1643" type="line"/>
      <point x="-435" y="1643" type="line"/>
      <point x="-434" y="1503" type="line"/>
      <point x="-487" y="1377" type="line"/>
      <point x="-457" y="1351" type="line"/>
    </contour>
  </outline>
</glyph>
<glyph name="uni0516" format="2">
  <advance width="1551"/>
  <unicode hex="0516"/>
  <outline>
    <contour>
      <point x="1432" y="1456" type="line"/>
      <point x="1365" y="1456" type="line"/>
      <point x="887" y="808" type="line"/>
      <point x="875" y="709" type="line"/>
    </contour>
    <contour>
      <point x="1404" y="0" type="line"/>
      <point x="1472" y="0" type="line"/>
      <point x="866" y="757" type="line"/>
      <point x="833" y="714" type="line"/>
    </contour>
    <contour>
      <point x="577" y="615" type="line"/>
      <point x="842" y="615"/>
      <point x="978" y="775"/>
      <point x="978" y="1031" type="curve"/>
      <point x="978" y="1289"/>
      <point x="840" y="1456"/>
      <point x="577" y="1456" type="curve"/>
      <point x="188" y="1456" type="line"/>
      <point x="188" y="0" type="line"/>
      <point x="240" y="0" type="line"/>
      <point x="240" y="1406" type="line"/>
      <point x="577" y="1406" type="line"/>
      <point x="824" y="1406"/>
      <point x="925" y="1236"/>
      <point x="925" y="1029" type="curve"/>
      <point x="925" y="830"/>
      <point x="824" y="667"/>
      <point x="577" y="667" type="curve"/>
      <point x="205" y="667" type="line"/>
      <point x="205" y="615" type="line"/>
    </contour>
  </outline>
</glyph>
<glyph name="uni1D1D" format="2">
  <advance width="1110"/>
  <unicode hex="1D1D"/>
  <outline>
    <contour>
      <point x="778" y="870" type="line"/>
      <point x="990" y="870" type="line"/>
      <point x="990" y="920" type="line"/>
      <point x="72" y="920" type="line"/>
      <point x="72" y="870" type="line"/>
    </contour>
    <contour>
      <point x="611" y="879" type="line"/>
      <point x="786" y="879"/>
      <point x="956" y="786"/>
      <point x="956" y="494" type="curve" smooth="yes"/>
      <point x="956" y="316"/>
      <point x="854" y="189"/>
      <point x="598" y="189" type="curve" smooth="yes"/>
      <point x="72" y="189" type="line"/>
      <point x="72" y="140" type="line"/>
      <point x="596" y="140" type="line" smooth="yes"/>
      <point x="886" y="140"/>
      <point x="1007" y="283"/>
      <point x="1007" y="495" type="curve" smooth="yes"/>
      <point x="1007" y="793"/>
      <point x="838" y="924"/>
      <point x="609" y="924" type="curve"/>
    </contour>
  </outline>
</glyph>
<glyph name="uni1D39" format="2">
  <advance width="1097"/>
  <unicode hex="1D39"/>
  <outline>
    <contour>
      <point x="123" y="1728" type="line"/>
      <point x="526" y="651" type="line"/>
      <point x="568" y="651" type="line"/>
      <point x="974" y="1728" type="line"/>
      <point x="915" y="1728" type="line"/>
      <point x="547" y="723" type="line"/>
      <point x="180" y="1728" type="line"/>
    </contour>
    <contour>
      <point x="120" y="1728" type="line"/>
      <point x="120" y="651" type="line"/>
      <point x="172" y="651" type="line"/>
      <point x="172" y="1174" type="line"/>
      <point x="170" y="1728" type="line"/>
    </contour>
    <contour>
      <point x="928" y="1728" type="line"/>
      <point x="925" y="1174" type="line"/>
      <point x="925" y="651" type="line"/>
      <point x="977" y="651" type="line"/>
      <point x="977" y="1728" type="line"/>
    </contour>
  </outline>
</glyph>
<glyph name="uni1D44" format="2">
  <advance width="724"/>
  <unicode hex="1D44"/>
  <outline>
    <contour>
      <point x="176" y="1300" type="line"/>
      <point x="176" y="1352"/>
      <point x="161" y="1411"/>
      <point x="144" y="1449" type="curve"/>
      <point x="88" y="1449" type="line"/>
      <point x="88" y="1446" type="line"/>
      <point x="108" y="1411"/>
      <point x="125" y="1347"/>
      <point x="125" y="1288" type="curve" smooth="yes"/>
      <point x="125" y="886" type="line" smooth="yes"/>
      <point x="125" y="718"/>
      <point x="227" y="634"/>
      <point x="369" y="634" type="curve" smooth="yes"/>
      <point x="514" y="634"/>
      <point x="620" y="743"/>
      <point x="620" y="868" type="curve"/>
      <point x="571" y="870" type="line"/>
      <point x="569" y="757"/>
      <point x="490" y="687"/>
      <point x="369" y="687" type="curve" smooth="yes"/>
      <point x="238" y="687"/>
      <point x="176" y="758"/>
      <point x="176" y="884" type="curve" smooth="yes"/>
    </contour>
    <contour>
      <point x="151" y="992" type="line"/>
      <point x="331" y="992" type="line" smooth="yes"/>
      <point x="520" y="992"/>
      <point x="638" y="1107"/>
      <point x="638" y="1249" type="curve" smooth="yes"/>
      <point x="638" y="1377"/>
      <point x="562" y="1466"/>
      <point x="435" y="1466" type="curve" smooth="yes"/>
      <point x="266" y="1466"/>
      <point x="167" y="1348"/>
      <point x="137" y="1238" type="curve"/>
      <point x="155" y="1182" type="line"/>
      <point x="190" y="1321"/>
      <point x="292" y="1415"/>
      <point x="432" y="1415" type="curve" smooth="yes"/>
      <point x="533" y="1415"/>
      <point x="589" y="1346"/>
      <point x="589" y="1249" type="curve" smooth="yes"/>
      <point x="589" y="1126"/>
      <point x="494" y="1043"/>
      <point x="329" y="1043" type="curve" smooth="yes"/>
      <point x="148" y="1043" type="line"/>
    </contour>
  </outline>
</glyph>
<glyph name="uni1D53" format="2">
  <advance width="633"/>
  <unicode hex="1D53"/>
  <outline>
    <contour>
      <point x="62" y="710" type="line"/>
      <point x="113" y="659"/>
      <point x="175" y="629"/>
      <point x="248" y="629" type="curve" smooth="yes"/>
      <point x="425" y="629"/>
      <point x="548" y="794"/>
      <point x="548" y="1030" type="curve" smooth="yes"/>
      <point x="548" y="1061" type="line" smooth="yes"/>
      <point x="548" y="1295"/>
      <point x="425" y="1459"/>
      <point x="247" y="1459" type="curve" smooth="yes"/>
      <point x="171" y="1459"/>
      <point x="105" y="1430"/>
      <point x="53" y="1372" type="curve"/>
      <point x="87" y="1335" type="line"/>
      <point x="126" y="1381"/>
      <point x="181" y="1410"/>
      <point x="247" y="1410" type="curve" smooth="yes"/>
      <point x="411" y="1410"/>
      <point x="494" y="1250"/>
      <point x="494" y="1061" type="curve" smooth="yes"/>
      <point x="494" y="1030" type="line" smooth="yes"/>
      <point x="494" y="839"/>
      <point x="411" y="680"/>
      <point x="248" y="680" type="curve" smooth="yes"/>
      <point x="183" y="680"/>
      <point x="132" y="708"/>
      <point x="90" y="750" type="curve"/>
    </contour>
  </outline>
</glyph>
<glyph name="uni1D87" format="2">
  <advance width="992"/>
  <unicode hex="1D87"/>
  <anchor x="509" y="1290" name="top"/>
  <anchor x="509" y="-447" name="bottom"/>
  <anchor x="973" y="1290" name="top0315"/>
  <anchor x="509" y="1290" name="parent_top"/>
  <outline>
    <contour>
      <point x="820" y="51" type="line"/>
      <point x="820" y="-89" type="line" smooth="yes"/>
      <point x="820" y="-276"/>
      <point x="783" y="-386"/>
      <point x="661" y="-386" type="curve" smooth="yes"/>
      <point x="630" y="-386"/>
      <point x="595" y="-375"/>
      <point x="577" y="-368" type="curve"/>
      <point x="567" y="-415" type="line"/>
      <point x="601" y="-429"/>
      <point x="629" y="-437"/>
      <point x="663" y="-437" type="curve" smooth="yes"/>
      <point x="812" y="-437"/>
      <point x="873" y="-313"/>
      <point x="873" y="-89" type="curve" smooth="yes"/>
      <point x="873" y="51" type="line"/>
    </contour>
    <contour>
      <point x="215" y="851" type="line"/>
      <point x="215" y="1082" type="line"/>
      <point x="163" y="1082" type="line"/>
      <point x="163" y="0" type="line"/>
      <point x="215" y="0" type="line"/>
    </contour>
    <contour>
      <point x="206" y="637" type="line"/>
      <point x="214" y="762"/>
      <point x="306" y="1052"/>
      <point x="533" y="1052" type="curve" smooth="yes"/>
      <point x="678" y="1052"/>
      <point x="779" y="979"/>
      <point x="779" y="701" type="curve" smooth="yes"/>
      <point x="779" y="0" type="line"/>
      <point x="831" y="0" type="line"/>
      <point x="831" y="700" type="line" smooth="yes"/>
      <point x="831" y="986"/>
      <point x="724" y="1102"/>
      <point x="538" y="1102" type="curve" smooth="yes"/>
      <point x="339" y="1102"/>
      <point x="200" y="906"/>
      <point x="180" y="695" type="curve"/>
    </contour>
  </outline>
</glyph>
<glyph name="uni1D97" format="2">
  <advance width="923"/>
  <unicode hex="1D97"/>
  <anchor x="447" y="1290" name="top"/>
  <anchor x="447" y="-447" name="bottom"/>
  <anchor x="902" y="1290" name="top0315"/>
  <anchor x="447" y="1290" name="parent_top"/>
  <outline>
    <contour>
      <point x="101" y="327" type="line"/>
      <point x="101" y="-88" type="line" smooth="yes"/>
      <point x="101" y="-312"/>
      <point x="159" y="-436"/>
      <point x="312" y="-436" type="curve" smooth="yes"/>
      <point x="347" y="-436"/>
      <point x="374" y="-428"/>
      <point x="406" y="-414" type="curve"/>
      <point x="396" y="-367" type="line"/>
      <point x="378" y="-374"/>
      <point x="344" y="-385"/>
      <point x="314" y="-385" type="curve" smooth="yes"/>
      <point x="191" y="-385"/>
      <point x="153" y="-275"/>
      <point x="153" y="-88" type="curve" smooth="yes"/>
      <point x="153" y="327" type="line"/>
    </contour>
    <contour>
      <point x="443" y="-22" type="curve"/>
      <point x="684" y="-22"/>
      <point x="820" y="141"/>
      <point x="820" y="483" type="curve" smooth="yes"/>
      <point x="820" y="599" type="line" smooth="yes"/>
      <point x="820" y="941"/>
      <point x="684" y="1102"/>
      <point x="443" y="1102" type="curve" smooth="yes"/>
      <point x="266" y="1102"/>
      <point x="109" y="1004"/>
      <point x="101" y="725" type="curve"/>
      <point x="153" y="725" type="line"/>
      <point x="162" y="972"/>
      <point x="296" y="1051"/>
      <point x="443" y="1051" type="curve"/>
      <point x="668" y="1051"/>
      <point x="769" y="897"/>
      <point x="769" y="599" type="curve" smooth="yes"/>
      <point x="769" y="483" type="line" smooth="yes"/>
      <point x="769" y="183"/>
      <point x="668" y="30"/>
      <point x="443" y="30" type="curve" smooth="yes"/>
      <point x="301" y="30"/>
      <point x="164" y="89"/>
      <point x="153" y="327" type="curve"/>
      <point x="101" y="327" type="line"/>
      <point x="111" y="80"/>
      <point x="263" y="-22"/>
    </contour>
  </outline>
</glyph>
<glyph name="uni1DB2" format="2">
  <advance width="954"/>
  <unicode hex="1DB2"/>
  <outline>
    <contour>
      <point x="868" y="1055" type="line"/>
      <point x="868" y="1307"/>
      <point x="777" y="1471"/>
      <point x="624" y="1471" type="curve" smooth="yes"/>
      <point x="530" y="1471"/>
      <point x="484" y="1417"/>
      <point x="463" y="1387" type="curve"/>
      <point x="463" y="712" type="line"/>
      <point x="475" y="696"/>
      <point x="528" y="640"/>
      <point x="624" y="640" type="curve" smooth="yes"/>
      <point x="778" y="640"/>
      <point x="868" y="794"/>
      <point x="868" y="1039" type="curve" smooth="yes"/>
    </contour>
    <contour>
      <point x="818" y="1039" type="line"/>
      <point x="818" y="826"/>
      <point x="753" y="689"/>
      <point x="624" y="689" type="curve" smooth="yes"/>
      <point x="541" y="689"/>
      <point x="500" y="734"/>
      <point x="487" y="746" type="curve"/>
      <point x="487" y="1345" type="line"/>
      <point x="498" y="1365"/>
      <point x="525" y="1417"/>
      <point x="622" y="1417" type="curve" smooth="yes"/>
      <point x="753" y="1417"/>
      <point x="818" y="1269"/>
      <point x="818" y="1055" type="curve" smooth="yes"/>
    </contour>
    <contour>
      <point x="86" y="1039" type="line"/>
      <point x="86" y="794"/>
      <point x="175" y="640"/>
      <point x="330" y="640" type="curve" smooth="yes"/>
      <point x="427" y="640"/>
      <point x="479" y="694"/>
      <point x="490" y="710" type="curve"/>
      <point x="490" y="1387" type="line"/>
      <point x="471" y="1417"/>
      <point x="423" y="1471"/>
      <point x="330" y="1471" type="curve" smooth="yes"/>
      <point x="177" y="1471"/>
      <point x="86" y="1307"/>
      <point x="86" y="1055" type="curve" smooth="yes"/>
    </contour>
    <contour>
      <point x="138" y="1055" type="line"/>
      <point x="138" y="1269"/>
      <point x="202" y="1417"/>
      <point x="333" y="1417" type="curve" smooth="yes"/>
      <point x="429" y="1417"/>
      <point x="458" y="1365"/>
      <point x="467" y="1345" type="curve"/>
      <point x="467" y="744" type="line"/>
      <point x="455" y="734"/>
      <point x="412" y="689"/>
      <point x="330" y="689" type="curve" smooth="yes"/>
      <point x="202" y="689"/>
      <point x="138" y="826"/>
      <point x="138" y="1039" type="curve" smooth="yes"/>
    </contour>
    <contour>
      <point x="452" y="348" type="line"/>
      <point x="503" y="348" type="line"/>
      <point x="503" y="1805" type="line"/>
      <point x="452" y="1805" type="line"/>
    </contour>
  </outline>
</glyph>
<glyph name="uni1DC5" format="2">
  <unicode hex="1DC5"/>
  <anchor x="-443" y="1170" name="_top"/>
  <outline>
    <contour>
      <point x="-545" y="1250" type="line"/>
      <point x="-175" y="1250" type="line"/>
      <point x="-175" y="1301" type="line"/>
      <point x="-524" y="1301" type="line"/>
      <point x="-648" y="1515" type="line"/>
      <point x="-711" y="1515" type="line"/>
    </contour>
  </outline>
</glyph>
<glyph name="uni1DFD" format="2">
  <unicode hex="1DFD"/>
  <anchor x="-447" y="0" name="_bottom"/>
  <outline>
    <contour>
      <point x="-224" y="-82" type="line"/>
      <point x="-224" y="-165"/>
      <point x="-270" y="-212"/>
      <point x="-326" y="-212" type="curve" smooth="yes"/>
      <point x="-421" y="-212"/>
      <point x="-451" y="-86"/>
      <point x="-569" y="-86" type="curve" smooth="yes"/>
      <point x="-654" y="-86"/>
      <point x="-720" y="-156"/>
      <point x="-720" y="-267" type="curve"/>
      <point x="-669" y="-265" type="line"/>
      <point x="-669" y="-180"/>
      <point x="-624" y="-138"/>
      <point x="-567" y="-138" type="curve" smooth="yes"/>
      <point x="-469" y="-138"/>
      <point x="-447" y="-265"/>
      <point x="-325" y="-265" type="curve" smooth="yes"/>
      <point x="-241" y="-265"/>
      <point x="-174" y="-191"/>
      <point x="-174" y="-79" type="curve"/>
    </contour>
    <contour>
      <point x="-224" y="-274" type="line"/>
      <point x="-224" y="-358"/>
      <point x="-270" y="-405"/>
      <point x="-326" y="-405" type="curve" smooth="yes"/>
      <point x="-421" y="-405"/>
      <point x="-451" y="-280"/>
      <point x="-569" y="-280" type="curve" smooth="yes"/>
      <point x="-654" y="-280"/>
      <point x="-720" y="-348"/>
      <point x="-720" y="-459" type="curve"/>
      <point x="-669" y="-457" type="line"/>
      <point x="-669" y="-372"/>
      <point x="-624" y="-331"/>
      <point x="-567" y="-331" type="curve" smooth="yes"/>
      <point x="-469" y="-331"/>
      <point x="-447" y="-459"/>
      <point x="-325" y="-459" type="curve" smooth="yes"/>
      <point x="-241" y="-459"/>
      <point x="-174" y="-384"/>
      <point x="-174" y="-272" type="curve"/>
    </contour>
  </outline>
</glyph>
<glyph name="uni20F0" format="2">
  <unicode hex="20F0"/>
  <anchor x="-471" y="1170" name="_top"/>
  <outline>
    <contour>
      <point x="-497" y="1195" type="line"/>
      <point x="-443" y="1195" type="line"/>
      <point x="-449" y="1556" type="line"/>
      <point x="-195" y="1370" type="line"/>
      <point x="-167" y="1415" type="line"/>
      <point x="-430" y="1589" type="line"/>
      <point x="-167" y="1765" type="line"/>
      <point x="-194" y="1810" type="line"/>
      <point x="-448" y="1625" type="line"/>
      <point x="-444" y="1986" type="line"/>
      <point x="-496" y="1986" type="line"/>
      <point x="-492" y="1625" type="line"/>
      <point x="-746" y="1810" type="line"/>
      <point x="-772" y="1764" type="line"/>
      <point x="-512" y="1590" type="line"/>
      <point x="-772" y="1416" type="line"/>
      <point x="-746" y="1367" type="line"/>
      <point x="-491" y="1556" type="line"/>
    </contour>
  </outline>
</glyph>
<glyph name="uni2182" format="2">
  <advance width="1477"/>
  <unicode hex="2182"/>
  <outline>
    <contour>
      <point x="756" y="0" type="line"/>
      <point x="823" y="0" type="line" smooth="yes"/>
      <point x="1118" y="0"/>
      <point x="1336" y="260"/>
      <point x="1336" y="638" type="curve" smooth="yes"/>
      <point x="1336" y="818" type="line" smooth="yes"/>
      <point x="1336" y="1196"/>
      <point x="1119" y="1456"/>
      <point x="823" y="1456" type="curve" smooth="yes"/>
      <point x="750" y="1456" type="line"/>
      <point x="750" y="1405" type="line"/>
      <point x="823" y="1405" type="line" smooth="yes"/>
      <point x="1090" y="1405"/>
      <point x="1284" y="1159"/>
      <point x="1284" y="822" type="curve" smooth="yes"/>
      <point x="1284" y="638" type="line" smooth="yes"/>
      <point x="1284" y="294"/>
      <point x="1091" y="51"/>
      <point x="823" y="51" type="curve" smooth="yes"/>
      <point x="757" y="51" type="line"/>
    </contour>
    <contour>
      <point x="765" y="1456" type="line"/>
      <point x="712" y="1456" type="line"/>
      <point x="712" y="0" type="line"/>
      <point x="765" y="0" type="line"/>
    </contour>
    <contour>
      <point x="743" y="317" type="line"/>
      <point x="832" y="317" type="line" smooth="yes"/>
      <point x="1000" y="317"/>
      <point x="1124" y="464"/>
      <point x="1124" y="678" type="curve" smooth="yes"/>
      <point x="1124" y="780" type="line" smooth="yes"/>
      <point x="1124" y="993"/>
      <point x="1001" y="1139"/>
      <point x="831" y="1139" type="curve" smooth="yes"/>
      <point x="741" y="1139" type="line"/>
      <point x="741" y="1087" type="line"/>
      <point x="831" y="1087" type="line" smooth="yes"/>
      <point x="981" y="1087"/>
      <point x="1074" y="972"/>
      <point x="1074" y="781" type="curve" smooth="yes"/>
      <point x="1074" y="678" type="line" smooth="yes"/>
      <point x="1074" y="484"/>
      <point x="982" y="367"/>
      <point x="832" y="367" type="curve" smooth="yes"/>
      <point x="745" y="367" type="line"/>
    </contour>
    <contour>
      <point x="721" y="0" type="line"/>
      <point x="718" y="51" type="line"/>
      <point x="652" y="51" type="line" smooth="yes"/>
      <point x="388" y="51"/>
      <point x="191" y="294"/>
      <point x="191" y="638" type="curve" smooth="yes"/>
      <point x="191" y="822" type="line" smooth="yes"/>
      <point x="191" y="1159"/>
      <point x="389" y="1405"/>
      <point x="651" y="1405" type="curve" smooth="yes"/>
      <point x="728" y="1405" type="line"/>
      <point x="728" y="1456" type="line"/>
      <point x="651" y="1456" type="line" smooth="yes"/>
      <point x="358" y="1456"/>
      <point x="140" y="1196"/>
      <point x="140" y="818" type="curve" smooth="yes"/>
      <point x="140" y="638" type="line" smooth="yes"/>
      <point x="140" y="260"/>
      <point x="358" y="0"/>
      <point x="652" y="0" type="curve" smooth="yes"/>
    </contour>
    <contour>
      <point x="732" y="317" type="line"/>
      <point x="731" y="367" type="line"/>
      <point x="647" y="367" type="line" smooth="yes"/>
      <point x="496" y="367"/>
      <point x="403" y="484"/>
      <point x="403" y="678" type="curve" smooth="yes"/>
      <point x="403" y="781" type="line" smooth="yes"/>
      <point x="403" y="972"/>
      <point x="496" y="1087"/>
      <point x="647" y="1087" type="curve" smooth="yes"/>
      <point x="735" y="1087" type="line"/>
      <point x="735" y="1139" type="line"/>
      <point x="647" y="1139" type="line" smooth="yes"/>
      <point x="477" y="1139"/>
      <point x="352" y="993"/>
      <point x="352" y="780" type="curve" smooth="yes"/>
      <point x="352" y="678" type="line" smooth="yes"/>
      <point x="352" y="464"/>
      <point x="478" y="317"/>
      <point x="647" y="317" type="curve" smooth="yes"/>
    </contour>
  </outline>
</glyph>
<glyph name="uni2C66" format="2">
  <advance width="683"/>
  <unicode hex="2C66"/>
  <outline>
    <contour>
      <point x="653" y="1219" type="line"/>
      <point x="597" y="1219" type="line"/>
      <point x="33" y="-145" type="line"/>
      <point x="92" y="-145" type="line"/>
    </contour>
    <contour>
      <point x="565" y="1082" type="line"/>
      <point x="127" y="1082" type="line"/>
      <point x="127" y="1029" type="line"/>
      <point x="546" y="1029" type="line"/>
    </contour>
    <contour>
      <point x="296" y="1374" type="line"/>
      <point x="296" y="259" type="line" smooth="yes"/>
      <point x="296" y="42"/>
      <point x="368" y="-20"/>
      <point x="484" y="-20" type="curve" smooth="yes"/>
      <point x="512" y="-20"/>
      <point x="559" y="-18"/>
      <point x="582" y="-9" type="curve"/>
      <point x="576" y="40" type="line"/>
      <point x="543" y="34"/>
      <point x="519" y="31"/>
      <point x="485" y="31" type="curve" smooth="yes"/>
      <point x="412" y="31"/>
      <point x="350" y="66"/>
      <point x="350" y="259" type="curve" smooth="yes"/>
      <point x="350" y="1374" type="line"/>
    </contour>
  </outline>
</glyph>
<glyph name="uni2DE2" format="2">
  <unicode hex="2DE2"/>
  <anchor x="-457" y="1170" name="_top"/>
  <outline>
    <contour>
      <point x="-277" y="1755" type="line"/>
      <point x="-570" y="1755" type="line"/>
      <point x="-570" y="1203" type="line"/>
      <point x="-531" y="1203" type="line"/>
      <point x="-531" y="1716" type="line"/>
      <point x="-277" y="1716" type="line"/>
    </contour>
  </outline>
</glyph>
<glyph name="uni2DF0" format="2">
  <unicode hex="2DF0"/>
  <anchor x="-474" y="1170" name="_top"/>
  <outline>
    <contour>
      <point x="-659" y="1203" type="line"/>
      <point x="-318" y="1203" type="line"/>
      <point x="-318" y="1755" type="line"/>
      <point x="-356" y="1755" type="line"/>
      <point x="-356" y="1240" type="line"/>
      <point x="-621" y="1240" type="line"/>
      <point x="-621" y="1755" type="line"/>
      <point x="-659" y="1755" type="line"/>
    </contour>
    <contour>
      <point x="-257" y="1240" type="line"/>
      <point x="-366" y="1240" type="line"/>
      <point x="-366" y="1203" type="line"/>
      <point x="-294" y="1203" type="line"/>
      <point x="-294" y="1040" type="line"/>
      <point x="-257" y="1040" type="line"/>
    </contour>
  </outline>
</glyph>
<glyph name="uni2DFB" format="2">
  <unicode hex="2DFB"/>
  <anchor x="-420" y="1170" name="_top"/>
  <outline>
    <contour>
      <point x="-485" y="1507" type="line"/>
      <point x="-640" y="1507" type="line"/>
      <point x="-640" y="1469" type="line"/>
      <point x="-485" y="1469" type="line"/>
    </contour>
    <contour>
      <point x="-619" y="1755" type="line"/>
      <point x="-657" y="1755" type="line"/>
      <point x="-657" y="1203" type="line"/>
      <point x="-619" y="1203" type="line"/>
    </contour>
    <contour>
      <point x="-290" y="1194" type="curve" smooth="yes"/>
      <point x="-163" y="1194"/>
      <point x="-87" y="1296"/>
      <point x="-87" y="1465" type="curve" smooth="yes"/>
      <point x="-87" y="1486" type="line" smooth="yes"/>
      <point x="-87" y="1655"/>
      <point x="-163" y="1759"/>
      <point x="-291" y="1759" type="curve" smooth="yes"/>
      <point x="-419" y="1759"/>
      <point x="-498" y="1655"/>
      <point x="-498" y="1486" type="curve" smooth="yes"/>
      <point x="-498" y="1465" type="line" smooth="yes"/>
      <point x="-498" y="1296"/>
      <point x="-419" y="1194"/>
    </contour>
    <contour>
      <point x="-290" y="1229" type="curve" smooth="yes"/>
      <point x="-408" y="1229"/>
      <point x="-460" y="1332"/>
      <point x="-460" y="1465" type="curve" smooth="yes"/>
      <point x="-460" y="1486" type="line" smooth="yes"/>
      <point x="-460" y="1617"/>
      <point x="-408" y="1722"/>
      <point x="-291" y="1722" type="curve" smooth="yes"/>
      <point x="-175" y="1722"/>
      <point x="-126" y="1617"/>
      <point x="-126" y="1486" type="curve" smooth="yes"/>
      <point x="-126" y="1465" type="line" smooth="yes"/>
      <point x="-126" y="1332"/>
      <point x="-176" y="1229"/>
    </contour>
  </outline>
</glyph>
<glyph name="uni2E19" format="2">
  <advance width="1055"/>
  <unicode hex="2E19"/>
  <outline>
    <contour>
      <point x="831" y="1591" type="line"/>
      <point x="67" y="31" type="line"/>
      <point x="110" y="6" type="line"/>
      <point x="873" y="1566" type="line"/>
    </contour>
    <contour>
      <point x="47" y="848" type="line"/>
      <point x="183" y="255" type="line"/>
      <point x="233" y="268" type="line"/>
      <point x="97" y="860" type="line"/>
    </contour>
    <contour>
      <point x="230" y="1083" type="line"/>
      <point x="342" y="583" type="line"/>
      <point x="393" y="598" type="line"/>
      <point x="280" y="1095" type="line"/>
    </contour>
    <contour>
      <point x="414" y="1313" type="line"/>
      <point x="505" y="912" type="line"/>
      <point x="555" y="927" type="line"/>
      <point x="463" y="1330" type="line"/>
    </contour>
    <contour>
      <point x="595" y="1562" type="line"/>
      <point x="667" y="1242" type="line"/>
      <point x="716" y="1255" type="line"/>
      <point x="645" y="1576" type="line"/>
    </contour>
    <contour>
      <point x="703" y="447" type="line"/>
      <point x="197" y="289" type="line"/>
      <point x="210" y="237" type="line"/>
      <point x="715" y="395" type="line"/>
    </contour>
    <contour>
      <point x="783" y="751" type="line"/>
      <point x="357" y="619" type="line"/>
      <point x="372" y="567" type="line"/>
      <point x="798" y="699" type="line"/>
    </contour>
    <contour>
      <point x="864" y="1054" type="line"/>
      <point x="521" y="948" type="line"/>
      <point x="534" y="896" type="line"/>
      <point x="877" y="1004" type="line"/>
    </contour>
    <contour>
      <point x="954" y="1364" type="line"/>
      <point x="681" y="1276" type="line"/>
      <point x="695" y="1224" type="line"/>
      <point x="966" y="1312" type="line"/>
    </contour>
  </outline>
</glyph>
<glyph name="uni2E3C" format="2">
  <advance width="505"/>
  <unicode hex="2E3C"/>
  <outline>
    <contour>
      <point x="120" y="-154" type="line"/>
      <point x="418" y="204" type="line"/>
      <point x="385" y="242" type="line"/>
      <point x="87" y="-116" type="line"/>
    </contour>
    <contour>
      <point x="385" y="-154" type="line"/>
      <point x="418" y="-116" type="line"/>
      <point x="120" y="242" type="line"/>
      <point x="87" y="204" type="line"/>
    </contour>
  </outline>
</glyph>
<glyph name="uniA655" format="2">
  <advance width="1427"/>
  <unicode hex="A655"/>
  <outline>
    <contour>
      <point x="1254" y="556" type="line"/>
      <point x="875" y="556" type="line"/>
      <point x="875" y="503" type="line"/>
      <point x="1254" y="503" type="line"/>
    </contour>
    <contour>
      <point x="102" y="520" type="line"/>
      <point x="102" y="204"/>
      <point x="268" y="-20"/>
      <point x="506" y="-20" type="curve" smooth="yes"/>
      <point x="748" y="-20"/>
      <point x="909" y="204"/>
      <point x="909" y="520" type="curve"/>
      <point x="909" y="562" type="line"/>
      <point x="909" y="880"/>
      <point x="748" y="1102"/>
      <point x="506" y="1102" type="curve" smooth="yes"/>
      <point x="268" y="1102"/>
      <point x="102" y="880"/>
      <point x="102" y="562" type="curve"/>
    </contour>
    <contour>
      <point x="154" y="562" type="line"/>
      <point x="154" y="817"/>
      <point x="284" y="1051"/>
      <point x="506" y="1051" type="curve" smooth="yes"/>
      <point x="729" y="1051"/>
      <point x="858" y="817"/>
      <point x="858" y="562" type="curve"/>
      <point x="858" y="520" type="line"/>
      <point x="858" y="259"/>
      <point x="729" y="31"/>
      <point x="506" y="31" type="curve" smooth="yes"/>
      <point x="284" y="31"/>
      <point x="154" y="259"/>
      <point x="154" y="520" type="curve"/>
    </contour>
    <contour>
      <point x="1265" y="1082" type="line"/>
      <point x="1213" y="1082" type="line"/>
      <point x="1213" y="0" type="line"/>
      <point x="1265" y="0" type="line"/>
    </contour>
  </outline>
</glyph>
<glyph name="uniA659" format="2">
  <advance width="979"/>
  <unicode hex="A659"/>
  <outline>
    <contour>
      <point x="466" y="964" type="line"/>
      <point x="495" y="1082" type="line"/>
      <point x="453" y="1082" type="line"/>
      <point x="50" y="0" type="line"/>
      <point x="104" y="0" type="line"/>
    </contour>
    <contour>
      <point x="856" y="0" type="line"/>
      <point x="912" y="0" type="line"/>
      <point x="510" y="1082" type="line"/>
      <point x="466" y="1082" type="line"/>
      <point x="496" y="968" type="line"/>
    </contour>
    <contour>
      <point x="754" y="380" type="line"/>
      <point x="200" y="380" type="line"/>
      <point x="200" y="327" type="line"/>
      <point x="754" y="327" type="line"/>
    </contour>
    <contour>
      <point x="870" y="50" type="line"/>
      <point x="95" y="50" type="line"/>
      <point x="95" y="0" type="line"/>
      <point x="870" y="0" type="line"/>
    </contour>
  </outline>
</glyph>
<glyph name="uniA665" format="2">
  <advance width="1275"/>
  <unicode hex="A665"/>
  <outline>
    <contour>
      <point x="1256" y="1082" type="line"/>
      <point x="804" y="1082" type="line"/>
      <point x="804" y="1030" type="line"/>
      <point x="1256" y="1030" type="line"/>
    </contour>
    <contour>
      <point x="795" y="1082" type="line"/>
      <point x="312" y="1082" type="line"/>
      <point x="312" y="1030" type="line"/>
      <point x="795" y="1030" type="line"/>
    </contour>
    <contour>
      <point x="829" y="1082" type="line"/>
      <point x="775" y="1082" type="line"/>
      <point x="775" y="0" type="line"/>
      <point x="829" y="0" type="line"/>
    </contour>
    <contour>
      <point x="294" y="1082" type="line"/>
      <point x="277" y="590" type="line" smooth="yes"/>
      <point x="262" y="162"/>
      <point x="207" y="50"/>
      <point x="86" y="50" type="curve" smooth="yes"/>
      <point x="56" y="50" type="line"/>
      <point x="56" y="0" type="line"/>
      <point x="85" y="0" type="line" smooth="yes"/>
      <point x="261" y="0"/>
      <point x="313" y="170"/>
      <point x="329" y="589" type="curve" smooth="yes"/>
      <point x="346" y="1082" type="line"/>
    </contour>
  </outline>
</glyph>
<glyph name="uniA677" format="2">
  <unicode hex="A677"/>
  <anchor x="-461" y="980" name="_top"/>
  <outline>
    <contour>
      <point x="-459" y="1243" type="line"/>
      <point x="-497" y="1119" type="line" smooth="yes"/>
      <point x="-521" y="1040"/>
      <point x="-546" y="1005"/>
      <point x="-604" y="1005" type="curve" smooth="yes"/>
      <point x="-610" y="1005"/>
      <point x="-624" y="1008"/>
      <point x="-632" y="1011" type="curve"/>
      <point x="-636" y="974" type="line"/>
      <point x="-629" y="969"/>
      <point x="-613" y="968"/>
      <point x="-602" y="968" type="curve" smooth="yes"/>
      <point x="-517" y="968"/>
      <point x="-486" y="1041"/>
      <point x="-467" y="1098" type="curve" smooth="yes"/>
      <point x="-260" y="1743" type="line"/>
      <point x="-299" y="1743" type="line"/>
    </contour>
    <contour>
      <point x="-619" y="1743" type="line"/>
      <point x="-660" y="1743" type="line"/>
      <point x="-471" y="1180" type="line"/>
      <point x="-440" y="1196" type="line"/>
      <point x="-470" y="1287" type="line"/>
    </contour>
  </outline>
</glyph>
<glyph name="uniA707" format="2">
  <advance width="534"/>
  <unicode hex="A707"/>
  <outline>
    <contour>
      <point x="402" y="-468" type="line"/>
      <point x="87" y="-468" type="line"/>
      <point x="87" y="-505" type="line"/>
      <point x="402" y="-505" type="line"/>
    </contour>
    <contour>
      <point x="97" y="-416" type="line"/>
      <point x="249" y="-416" type="line" smooth="yes"/>
      <point x="374" y="-416"/>
      <point x="448" y="-304"/>
      <point x="448" y="-142" type="curve" smooth="yes"/>
      <point x="448" y="-119" type="line" smooth="yes"/>
      <point x="448" y="43"/>
      <point x="373" y="158"/>
      <point x="250" y="158" type="curve" smooth="yes"/>
      <point x="97" y="158" type="line"/>
      <point x="97" y="119" type="line"/>
      <point x="250" y="119" type="line" smooth="yes"/>
      <point x="354" y="119"/>
      <point x="409" y="21"/>
      <point x="409" y="-119" type="curve" smooth="yes"/>
      <point x="409" y="-142" type="line" smooth="yes"/>
      <point x="409" y="-280"/>
      <point x="350" y="-379"/>
      <point x="249" y="-379" type="curve"/>
      <point x="97" y="-379" type="line"/>
    </contour>
  </outline>
</glyph>
<glyph name="uniA713" format="2">
  <advance width="726"/>
  <unicode hex="A713"/>
  <outline>
    <contour>
      <point x="669" y="985" type="line"/>
      <point x="669" y="1036" type="line"/>
      <point x="223" y="1036" type="line"/>
      <point x="223" y="985" type="line"/>
    </contour>
    <contour>
      <point x="238" y="1456" type="line"/>
      <point x="188" y="1456" type="line"/>
      <point x="188" y="-270" type="line"/>
      <point x="238" y="-270" type="line"/>
    </contour>
  </outline>
</glyph>
<glyph name="uniA71B" format="2">
  <advance width="686"/>
  <unicode hex="A71B"/>
  <outline>
    <contour>
      <point x="366" y="696" type="line"/>
      <point x="366" y="1403" type="line"/>
      <point x="315" y="1403" type="line"/>
      <point x="315" y="696" type="line"/>
    </contour>
    <contour>
      <point x="600" y="1163" type="line"/>
      <point x="343" y="1464" type="line"/>
      <point x="320" y="1416" type="line"/>
      <point x="600" y="1091" type="line"/>
    </contour>
    <contour>
      <point x="87" y="1091" type="line"/>
      <point x="368" y="1418" type="line"/>
      <point x="343" y="1464" type="line"/>
      <point x="87" y="1163" type="line"/>
    </contour>
  </outline>
</glyph>
<glyph name="uniA72C" format="2">
  <advance width="909"/>
  <unicode hex="A72C"/>
  <outline>
    <contour>
      <point x="721" y="450" type="line"/>
      <point x="164" y="450" type="line"/>
      <point x="615" y="1255" type="line"/>
      <point x="723" y="1456" type="line"/>
      <point x="675" y="1456" type="line"/>
      <point x="86" y="426" type="line"/>
      <point x="86" y="399" type="line"/>
      <point x="721" y="399" type="line"/>
    </contour>
    <contour>
      <point x="735" y="1456" type="line"/>
      <point x="683" y="1456" type="line"/>
      <point x="683" y="379" type="line"/>
      <point x="735" y="379" type="line"/>
    </contour>
    <contour>
      <point x="683" y="397" type="line"/>
      <point x="683" y="328" type="line" smooth="yes"/>
      <point x="683" y="140"/>
      <point x="613" y="31"/>
      <point x="491" y="31" type="curve" smooth="yes"/>
      <point x="461" y="31"/>
      <point x="425" y="41"/>
      <point x="407" y="50" type="curve"/>
      <point x="397" y="2" type="line"/>
      <point x="430" y="-13"/>
      <point x="459" y="-20"/>
      <point x="493" y="-20" type="curve" smooth="yes"/>
      <point x="646" y="-20"/>
      <point x="735" y="103"/>
      <point x="735" y="328" type="curve" smooth="yes"/>
      <point x="735" y="397" type="line"/>
    </contour>
  </outline>
</glyph>
<glyph name="uniA737" format="2">
  <advance width="1567"/>
  <unicode hex="A737"/>
  <outline>
    <contour>
      <point x="758" y="603" type="line"/>
      <point x="521" y="603" type="line" smooth="yes"/>
      <point x="257" y="603"/>
      <point x="99" y="466"/>
      <point x="99" y="274" type="curve" smooth="yes"/>
      <point x="99" y="102"/>
      <point x="211" y="-20"/>
      <point x="382" y="-20" type="curve" smooth="yes"/>
      <point x="610" y="-20"/>
      <point x="728" y="112"/>
      <point x="780" y="293" type="curve"/>
      <point x="758" y="341" type="line"/>
      <point x="693" y="121"/>
      <point x="574" y="29"/>
      <point x="382" y="29" type="curve" smooth="yes"/>
      <point x="245" y="29"/>
      <point x="150" y="137"/>
      <point x="150" y="269" type="curve" smooth="yes"/>
      <point x="150" y="433"/>
      <point x="291" y="550"/>
      <point x="526" y="550" type="curve" smooth="yes"/>
      <point x="760" y="550" type="line"/>
    </contour>
    <contour>
      <point x="789" y="573" type="line"/>
      <point x="789" y="761" type="line" smooth="yes"/>
      <point x="789" y="989"/>
      <point x="653" y="1102"/>
      <point x="464" y="1102" type="curve" smooth="yes"/>
      <point x="264" y="1102"/>
      <point x="123" y="956"/>
      <point x="123" y="787" type="curve"/>
      <point x="174" y="784" type="line"/>
      <point x="174" y="937"/>
      <point x="299" y="1052"/>
      <point x="462" y="1052" type="curve" smooth="yes"/>
      <point x="639" y="1052"/>
      <point x="738" y="944"/>
      <point x="738" y="763" type="curve" smooth="yes"/>
      <point x="738" y="562" type="line"/>
    </contour>
    <contour>
      <point x="1353" y="250" type="line"/>
      <point x="1354" y="0" type="line"/>
      <point x="1406" y="0" type="line"/>
      <point x="1406" y="1082" type="line"/>
      <point x="1353" y="1082" type="line"/>
    </contour>
    <contour>
      <point x="1361" y="421" type="line"/>
      <point x="1361" y="223"/>
      <point x="1284" y="31"/>
      <point x="1038" y="31" type="curve" smooth="yes"/>
      <point x="896" y="31"/>
      <point x="789" y="126"/>
      <point x="789" y="392" type="curve" smooth="yes"/>
      <point x="789" y="682" type="line"/>
      <point x="738" y="682" type="line"/>
      <point x="738" y="394" type="line" smooth="yes"/>
      <point x="738" y="91"/>
      <point x="859" y="-20"/>
      <point x="1038" y="-20" type="curve" smooth="yes"/>
      <point x="1293" y="-20"/>
      <point x="1403" y="168"/>
      <point x="1403" y="423" type="curve"/>
    </contour>
  </outline>
</glyph>
<glyph name="uniA74B" format="2">
  <advance width="1196"/>
  <unicode hex="A74B"/>
  <outline>
    <contour>
      <point x="1143" y="560" type="line"/>
      <point x="52" y="560" type="line"/>
      <point x="52" y="509" type="line"/>
      <point x="1143" y="509" type="line"/>
    </contour>
    <contour>
      <point x="196" y="520" type="line"/>
      <point x="196" y="204"/>
      <point x="358" y="-20"/>
      <point x="599" y="-20" type="curve" smooth="yes"/>
      <point x="838" y="-20"/>
      <point x="999" y="204"/>
      <point x="999" y="520" type="curve"/>
      <point x="999" y="562" type="line"/>
      <point x="999" y="880"/>
      <point x="838" y="1102"/>
      <point x="596" y="1102" type="curve" smooth="yes"/>
      <point x="358" y="1102"/>
      <point x="196" y="880"/>
      <point x="196" y="562" type="curve"/>
    </contour>
    <contour>
      <point x="247" y="562" type="line"/>
      <point x="247" y="817"/>
      <point x="377" y="1051"/>
      <point x="596" y="1051" type="curve" smooth="yes"/>
      <point x="818" y="1051"/>
      <point x="948" y="817"/>
      <point x="948" y="562" type="curve"/>
      <point x="948" y="520" type="line"/>
      <point x="948" y="259"/>
      <point x="818" y="31"/>
      <point x="599" y="31" type="curve" smooth="yes"/>
      <point x="377" y="31"/>
      <point x="247" y="259"/>
      <point x="247" y="520" type="curve"/>
    </contour>
  </outline>
</glyph>
<glyph name="uniA787" format="2">
  <advance width="952"/>
  <unicode hex="A787"/>
  <outline>
    <contour>
      <point x="337" y="1077" type="line"/>
      <point x="207" y="941"/>
      <point x="132" y="750"/>
      <point x="132" y="563" type="curve" smooth="yes"/>
      <point x="132" y="522" type="line" smooth="yes"/>
      <point x="132" y="203"/>
      <point x="269" y="-22"/>
      <point x="510" y="-22" type="curve" smooth="yes"/>
      <point x="689" y="-22"/>
      <point x="842" y="106"/>
      <point x="852" y="327" type="curve"/>
      <point x="800" y="327" type="line"/>
      <point x="788" y="119"/>
      <point x="652" y="30"/>
      <point x="510" y="30" type="curve" smooth="yes"/>
      <point x="285" y="30"/>
      <point x="185" y="247"/>
      <point x="185" y="521" type="curve" smooth="yes"/>
      <point x="185" y="565" type="line" smooth="yes"/>
      <point x="185" y="735"/>
      <point x="260" y="935"/>
      <point x="377" y="1050" type="curve"/>
    </contour>
    <contour>
      <point x="855" y="1082" type="line"/>
      <point x="104" y="1082" type="line"/>
      <point x="104" y="1031" type="line"/>
      <point x="855" y="1031" type="line"/>
    </contour>
  </outline>
</glyph>
<glyph name="uniA7B1" format="2">
  <advance width="1076"/>
  <unicode hex="A7B1"/>
  <outline>
    <contour>
      <point x="564" y="0" type="line"/>
      <point x="512" y="0" type="line"/>
      <point x="512" y="1456" type="line"/>
      <point x="564" y="1456" type="line"/>
    </contour>
    <contour>
      <point x="1011" y="0" type="line"/>
      <point x="64" y="0" type="line"/>
      <point x="64" y="50" type="line"/>
      <point x="1011" y="50" type="line"/>
    </contour>
  </outline>
</glyph>
<glyph name="Nsmallcap" format="2">
  <advance width="988"/>
  <anchor x="499" y="1290" name="top"/>
  <anchor x="499" y="0" name="bottom"/>
  <anchor x="969" y="1290" name="top0315"/>
  <anchor x="499" y="1290" name="parent_top"/>
  <outline>
    <contour>
      <point x="214" y="1082" type="line"/>
      <point x="813" y="35" type="line"/>
      <point x="773" y="0" type="line"/>
      <point x="177" y="1047" type="line"/>
    </contour>
    <contour>
      <point x="214" y="0" type="line"/>
      <point x="162" y="0" type="line"/>
      <point x="162" y="1082" type="line"/>
      <point x="214" y="1082" type="line"/>
    </contour>
    <contour>
      <point x="826" y="0" type="line"/>
      <point x="773" y="0" type="line"/>
      <point x="773" y="1082" type="line"/>
      <point x="826" y="1082" type="line"/>
    </contour>
  </outline>
</glyph>
<glyph name="Tonesix" format="2">
  <advance width="1066"/>
  <outline>
    <contour>
      <point x="193" y="1456" type="line"/>
      <point x="193" y="1456"/>
      <point x="96" y="1230"/>
      <point x="96" y="1230" type="curve"/>
      <point x="96" y="1230"/>
      <point x="96" y="1192"/>
      <point x="96" y="1192" type="curve"/>
      <point x="96" y="1192"/>
      <point x="193" y="967"/>
      <point x="193" y="967" type="curve"/>
      <point x="219" y="967" type="line"/>
      <point x="218" y="1456" type="line"/>
    </contour>
    <contour>
      <point x="211" y="786" type="line"/>
      <point x="211" y="734" type="line"/>
      <point x="559" y="734" type="line"/>
      <point x="805" y="734"/>
      <point x="905" y="573"/>
      <point x="905" y="394" type="curve"/>
      <point x="905" y="210"/>
      <point x="805" y="51"/>
      <point x="559" y="51" type="curve"/>
      <point x="247" y="51" type="line"/>
      <point x="247" y="1456" type="line"/>
      <point x="193" y="1456" type="line"/>
      <point x="193" y="0" type="line"/>
      <point x="559" y="0" type="line"/>
      <point x="823" y="0"/>
      <point x="959" y="162"/>
      <point x="959" y="392" type="curve"/>
      <point x="959" y="623"/>
      <point x="823" y="786"/>
      <point x="559" y="786" type="curve"/>
    </contour>
  </outline>
</glyph>
<glyph name="V.smcp" format="2">
  <advance width="937"/>
  <anchor x="468" y="1320" name="top"/>
  <anchor x="468" y="10" name="bottom"/>
  <anchor x="918" y="1600" name="top_dd"/>
  <anchor x="918" y="-407" name="bottom_dd"/>
  <anchor x="918" y="1320" name="top0315"/>
  <anchor x="468" y="1320" name="parent_top"/>
  <outline>
    <contour>
      <point x="491" y="130" type="line"/>
      <point x="451" y="0" type="line"/>
      <point x="497" y="0" type="line"/>
      <point x="893" y="1165" type="line"/>
      <point x="837" y="1165" type="line"/>
    </contour>
    <contour>
      <point x="101" y="1165" type="line"/>
      <point x="44" y="1165" type="line"/>
      <point x="440" y="0" type="line"/>
      <point x="485" y="0" type="line"/>
      <point x="447" y="131" type="line"/>
    </contour>
  </outline>
</glyph>
<glyph name="cedillanosp" format="2">
  <anchor x="-450" y="0" name="_bottom"/>
  <outline>
    <contour>
      <point x="-474" y="0" type="line"/>
      <point x="-496" y="-120" type="line"/>
      <point x="-393" y="-134"/>
      <point x="-337" y="-156"/>
      <point x="-337" y="-246" type="curve" smooth="yes"/>
      <point x="-337" y="-344"/>
      <point x="-444" y="-388"/>
      <point x="-536" y="-388" type="curve"/>
      <point x="-530" y="-435" type="line"/>
      <point x="-379" y="-435"/>
      <point x="-285" y="-360"/>
      <point x="-285" y="-245" type="curve" smooth="yes"/>
      <point x="-285" y="-125"/>
      <point x="-359" y="-85"/>
      <point x="-435" y="-77" type="curve"/>
      <point x="-425" y="0" type="line"/>
    </contour>
  </outline>
</glyph>
<glyph name="commaaccent" format="2">
  <advance width="430"/>
  <outline>
    <contour>
      <point x="255" y="112" type="line"/>
      <point x="203" y="112" type="line"/>
      <point x="203" y="33" type="line" smooth="yes"/>
      <point x="203" y="-53"/>
      <point x="183" y="-107"/>
      <point x="146" y="-173" type="curve"/>
      <point x="179" y="-205" type="line"/>
      <point x="224" y="-148"/>
      <point x="255" y="-70"/>
      <point x="255" y="35" type="curve" smooth="yes"/>
    </contour>
  </outline>
</glyph>
<glyph name="cstretch" format="2">
  <advance width="917"/>
  <anchor x="477" y="1633" name="top"/>
  <anchor x="477" y="-447" name="bottom"/>
  <anchor x="898" y="1633" name="top0315"/>
  <anchor x="477" y="1633" name="parent_top"/>
  <outline>
    <contour>
      <point x="478" y="-386" type="curve" smooth="yes"/>
      <point x="253" y="-386"/>
      <point x="152" y="-169"/>
      <point x="152" y="105" type="curve" smooth="yes"/>
      <point x="152" y="562" type="line" smooth="yes"/>
      <point x="152" y="834"/>
      <point x="253" y="1051"/>
      <point x="478" y="1051" type="curve"/>
      <point x="625" y="1051"/>
      <point x="759" y="944"/>
      <point x="768" y="725" type="curve"/>
      <point x="820" y="725" type="line"/>
      <point x="812" y="973"/>
      <point x="655" y="1102"/>
      <point x="478" y="1102" type="curve" smooth="yes"/>
      <point x="237" y="1102"/>
      <point x="101" y="879"/>
      <point x="101" y="562" type="curve" smooth="yes"/>
      <point x="101" y="105" type="line" smooth="yes"/>
      <point x="101" y="-214"/>
      <point x="237" y="-437"/>
      <point x="478" y="-437" type="curve"/>
      <point x="658" y="-437"/>
      <point x="810" y="-308"/>
      <point x="820" y="-87" type="curve"/>
      <point x="768" y="-87" type="line"/>
      <point x="757" y="-298"/>
      <point x="620" y="-386"/>
    </contour>
  </outline>
</glyph>
<glyph name="dieresisacutecomb" format="2">
  <outline>
    <contour>
      <point x="-553" y="1321" type="line"/>
      <point x="-504" y="1321" type="line"/>
      <point x="-355" y="1535" type="line"/>
      <point x="-416" y="1535" type="line"/>
    </contour>
    <contour>
      <point x="-681" y="1429" type="curve" smooth="yes"/>
      <point x="-681" y="1401"/>
      <point x="-662" y="1377"/>
      <point x="-633" y="1377" type="curve" smooth="yes"/>
      <point x="-605" y="1377"/>
      <point x="-582" y="1401"/>
      <point x="-582" y="1429" type="curve" smooth="yes"/>
      <point x="-582" y="1462"/>
      <point x="-605" y="1485"/>
      <point x="-633" y="1485" type="curve" smooth="yes"/>
      <point x="-662" y="1485"/>
      <point x="-681" y="1462"/>
    </contour>
    <contour>
      <point x="-335" y="1430" type="curve" smooth="yes"/>
      <point x="-335" y="1401"/>
      <point x="-315" y="1377"/>
      <point x="-286" y="1377" type="curve" smooth="yes"/>
      <point x="-258" y="1377"/>
      <point x="-236" y="1401"/>
      <point x="-236" y="1430" type="curve" smooth="yes"/>
      <point x="-236" y="1462"/>
      <point x="-258" y="1485"/>
      <point x="-286" y="1485" type="curve" smooth="yes"/>
      <point x="-315" y="1485"/>
      <point x="-335" y="1462"/>
    </contour>
  </outline>
</glyph>
<glyph name="dyogh" format="2">
  <advance width="1681"/>
  <anchor x="1160" y="1600" name="top"/>
  <anchor x="1160" y="-447" name="bottom"/>
  <anchor x="1662" y="1600" name="top0315"/>
  <anchor x="1160" y="1600" name="parent_top"/>
  <outline>
    <contour>
      <point x="793" y="1082" type="line"/>
      <point x="793" y="1031" type="line"/>
      <point x="1474" y="1031" type="line"/>
      <point x="1067" y="418" type="line"/>
      <point x="1067" y="403" type="line"/>
      <point x="1118" y="403" type="line"/>
      <point x="1533" y="1017" type="line"/>
      <point x="1531" y="1082" type="line"/>
    </contour>
    <contour>
      <point x="1067" y="410" type="line"/>
      <point x="1067" y="365" type="line"/>
      <point x="1154" y="365" type="line" smooth="yes"/>
      <point x="1363" y="365"/>
      <point x="1477" y="250"/>
      <point x="1477" y="-35" type="curve" smooth="yes"/>
      <point x="1477" y="-253"/>
      <point x="1363" y="-386"/>
      <point x="1159" y="-386" type="curve" smooth="yes"/>
      <point x="961" y="-386"/>
      <point x="845" y="-300"/>
      <point x="829" y="-115" type="curve"/>
      <point x="777" y="-115" type="line"/>
      <point x="799" y="-370"/>
      <point x="970" y="-437"/>
      <point x="1159" y="-437" type="curve" smooth="yes"/>
      <point x="1373" y="-437"/>
      <point x="1529" y="-289"/>
      <point x="1529" y="-31" type="curve" smooth="yes"/>
      <point x="1529" y="253"/>
      <point x="1409" y="410"/>
      <point x="1158" y="410" type="curve"/>
    </contour>
    <contour>
      <point x="777" y="210" type="line"/>
      <point x="777" y="0" type="line"/>
      <point x="829" y="0" type="line"/>
      <point x="829" y="1536" type="line"/>
      <point x="777" y="1536" type="line"/>
    </contour>
    <contour>
      <point x="121" y="531" type="line"/>
      <point x="121" y="201"/>
      <point x="250" y="-20"/>
      <point x="467" y="-20" type="curve" smooth="yes"/>
      <point x="675" y="-20"/>
      <point x="794" y="133"/>
      <point x="823" y="298" type="curve"/>
      <point x="823" y="750" type="line"/>
      <point x="784" y="949"/>
      <point x="671" y="1102"/>
      <point x="469" y="1102" type="curve" smooth="yes"/>
      <point x="250" y="1102"/>
      <point x="121" y="892"/>
      <point x="121" y="552" type="curve" smooth="yes"/>
    </contour>
    <contour>
      <point x="176" y="552" type="line"/>
      <point x="176" y="841"/>
      <point x="269" y="1052"/>
      <point x="470" y="1052" type="curve" smooth="yes"/>
      <point x="697" y="1052"/>
      <point x="769" y="844"/>
      <point x="793" y="712" type="curve"/>
      <point x="793" y="327" type="line"/>
      <point x="763" y="162"/>
      <point x="659" y="31"/>
      <point x="468" y="31" type="curve" smooth="yes"/>
      <point x="269" y="31"/>
      <point x="176" y="240"/>
      <point x="176" y="531" type="curve" smooth="yes"/>
    </contour>
  </outline>
</glyph>
<glyph name="dzcurl" format="2">
  <advance width="1665"/>
  <anchor x="1179" y="1600" name="top"/>
  <anchor x="1179" y="-447" name="bottom"/>
  <anchor x="1646" y="1600" name="top0315"/>
  <anchor x="1179" y="1600" name="parent_top"/>
  <outline>
    <contour>
      <point x="959" y="-138" type="line"/>
      <point x="1001" y="-167" type="line"/>
      <point x="1115" y="31" type="line"/>
      <point x="1250" y="291"/>
      <point x="1326" y="400"/>
      <point x="1429" y="400" type="curve" smooth="yes"/>
      <point x="1517" y="400"/>
      <point x="1569" y="334"/>
      <point x="1569" y="230" type="curve" smooth="yes"/>
      <point x="1569" y="132"/>
      <point x="1518" y="51"/>
      <point x="1418" y="51" type="curve" smooth="yes"/>
      <point x="1239" y="51" type="line"/>
      <point x="1239" y="0" type="line"/>
      <point x="1418" y="0" type="line" smooth="yes"/>
      <point x="1552" y="0"/>
      <point x="1620" y="109"/>
      <point x="1620" y="230" type="curve" smooth="yes"/>
      <point x="1620" y="376"/>
      <point x="1541" y="451"/>
      <point x="1437" y="451" type="curve" smooth="yes"/>
      <point x="1289" y="451"/>
      <point x="1207" y="304"/>
      <point x="1054" y="26" type="curve"/>
    </contour>
    <contour>
      <point x="1294" y="51" type="line"/>
      <point x="845" y="51" type="line"/>
      <point x="845" y="0" type="line"/>
      <point x="1294" y="0" type="line"/>
    </contour>
    <contour>
      <point x="1496" y="1037" type="line"/>
      <point x="1496" y="1082" type="line"/>
      <point x="1463" y="1082" type="line"/>
      <point x="827" y="42" type="line"/>
      <point x="827" y="0" type="line"/>
      <point x="861" y="0" type="line"/>
    </contour>
    <contour>
      <point x="1473" y="1082" type="line"/>
      <point x="811" y="1082" type="line"/>
      <point x="811" y="1030" type="line"/>
      <point x="1473" y="1030" type="line"/>
    </contour>
    <contour>
      <point x="777" y="210" type="line"/>
      <point x="777" y="0" type="line"/>
      <point x="829" y="0" type="line"/>
      <point x="829" y="1536" type="line"/>
      <point x="777" y="1536" type="line"/>
    </contour>
    <contour>
      <point x="121" y="531" type="line"/>
      <point x="121" y="201"/>
      <point x="250" y="-20"/>
      <point x="467" y="-20" type="curve" smooth="yes"/>
      <point x="675" y="-20"/>
      <point x="794" y="133"/>
      <point x="823" y="298" type="curve"/>
      <point x="823" y="750" type="line"/>
      <point x="784" y="949"/>
      <point x="671" y="1102"/>
      <point x="469" y="1102" type="curve" smooth="yes"/>
      <point x="250" y="1102"/>
      <point x="121" y="892"/>
      <point x="121" y="552" type="curve" smooth="yes"/>
    </contour>
    <contour>
      <point x="176" y="552" type="line"/>
      <point x="176" y="841"/>
      <point x="269" y="1052"/>
      <point x="470" y="1052" type="curve" smooth="yes"/>
      <point x="697" y="1052"/>
      <point x="769" y="844"/>
      <point x="793" y="712" type="curve"/>
      <point x="793" y="327" type="line"/>
      <point x="763" y="162"/>
      <point x="659" y="31"/>
      <point x="468" y="31" type="curve" smooth="yes"/>
      <point x="269" y="31"/>
      <point x="176" y="240"/>
      <point x="176" y="531" type="curve" smooth="yes"/>
    </contour>
  </outline>
</glyph>
<glyph name="eshcurl" format="2">
  <advance width="655"/>
  <anchor x="600" y="1700" name="top"/>
  <anchor x="240" y="-447" name="bottom"/>
  <anchor x="636" y="1700" name="top0315"/>
  <anchor x="600" y="1700" name="parent_top"/>
  <outline>
    <contour>
      <point x="465" y="125" type="curve"/>
      <point x="465" y="125"/>
      <point x="412" y="125"/>
      <point x="412" y="125" type="curve"/>
      <point x="412" y="125"/>
      <point x="412" y="-47"/>
      <point x="412" y="-140" type="curve" smooth="yes"/>
      <point x="412" y="-294"/>
      <point x="373" y="-386"/>
      <point x="246" y="-386" type="curve" smooth="yes"/>
      <point x="146" y="-386"/>
      <point x="87" y="-304"/>
      <point x="87" y="-203" type="curve" smooth="yes"/>
      <point x="87" y="-102"/>
      <point x="141" y="-36"/>
      <point x="231" y="-36" type="curve" smooth="yes"/>
      <point x="320" y="-36"/>
      <point x="382" y="-104"/>
      <point x="453" y="-226" type="curve"/>
      <point x="545" y="-402" type="line"/>
      <point x="545" y="-402"/>
      <point x="587" y="-373"/>
      <point x="587" y="-373" type="curve"/>
      <point x="456" y="-136" type="line"/>
      <point x="391" y="-46"/>
      <point x="322" y="15"/>
      <point x="221" y="15" type="curve" smooth="yes"/>
      <point x="119" y="15"/>
      <point x="36" y="-59"/>
      <point x="36" y="-203" type="curve" smooth="yes"/>
      <point x="36" y="-328"/>
      <point x="106" y="-437"/>
      <point x="246" y="-437" type="curve" smooth="yes"/>
      <point x="388" y="-437"/>
      <point x="465" y="-346"/>
      <point x="465" y="-135" type="curve"/>
      <point x="465" y="-135"/>
      <point x="465" y="125"/>
    </contour>
    <contour>
      <point x="465" y="0" type="line"/>
      <point x="465" y="1239" type="line" smooth="yes"/>
      <point x="465" y="1407"/>
      <point x="539" y="1507"/>
      <point x="657" y="1507" type="curve" smooth="yes"/>
      <point x="702" y="1507"/>
      <point x="726" y="1502"/>
      <point x="758" y="1491" type="curve"/>
      <point x="763" y="1539" type="line"/>
      <point x="728" y="1553"/>
      <point x="690" y="1557"/>
      <point x="655" y="1557" type="curve" smooth="yes"/>
      <point x="505" y="1557"/>
      <point x="412" y="1444"/>
      <point x="412" y="1239" type="curve" smooth="yes"/>
      <point x="412" y="0" type="line"/>
    </contour>
  </outline>
</glyph>
<glyph name="four.sup" format="2">
  <advance width="656"/>
  <outline>
    <contour>
      <point x="603" y="252" type="line"/>
      <point x="137" y="252" type="line"/>
      <point x="395" y="659" type="line"/>
      <point x="468" y="789" type="line"/>
      <point x="427" y="789" type="line"/>
      <point x="73" y="234" type="line"/>
      <point x="75" y="206" type="line"/>
      <point x="603" y="206" type="line"/>
    </contour>
    <contour>
      <point x="480" y="789" type="line"/>
      <point x="432" y="789" type="line"/>
      <point x="432" y="0" type="line"/>
      <point x="480" y="0" type="line"/>
    </contour>
  </outline>
</glyph>
<glyph name="macroncomb" format="2">
  <anchor x="-449" y="1290" name="_top"/>
  <anchor x="-449" y="1539" name="top"/>
  <anchor x="-450" y="1410" name="parent_top"/>
  <outline>
    <contour>
      <point x="-208" y="1436" type="line"/>
      <point x="-693" y="1436" type="line"/>
      <point x="-693" y="1385" type="line"/>
      <point x="-208" y="1385" type="line"/>
    </contour>
  </outline>
</glyph>
<glyph name="nine.onum" format="2">
  <advance width="1017"/>
  <outline>
    <contour>
      <point x="412" y="-298" type="curve"/>
      <point x="324" y="-298"/>
      <point x="266" y="-276"/>
      <point x="196" y="-235" type="curve"/>
      <point x="180" y="-282" type="line"/>
      <point x="256" y="-326"/>
      <point x="336" y="-350"/>
      <point x="413" y="-350" type="curve"/>
      <point x="677" y="-350"/>
      <point x="865" y="-89"/>
      <point x="865" y="327" type="curve"/>
      <point x="865" y="611" type="line"/>
      <point x="865" y="995"/>
      <point x="720" y="1187"/>
      <point x="471" y="1187" type="curve" smooth="yes"/>
      <point x="255" y="1187"/>
      <point x="101" y="948"/>
      <point x="101" y="666" type="curve"/>
      <point x="101" y="404"/>
      <point x="249" y="176"/>
      <point x="467" y="176" type="curve"/>
      <point x="687" y="176"/>
      <point x="855" y="372"/>
      <point x="855" y="638" type="curve"/>
      <point x="825" y="636" type="line"/>
      <point x="825" y="485"/>
      <point x="711" y="228"/>
      <point x="466" y="228" type="curve"/>
      <point x="274" y="228"/>
      <point x="161" y="443"/>
      <point x="161" y="666" type="curve"/>
      <point x="161" y="902"/>
      <point x="282" y="1135"/>
      <point x="476" y="1135" type="curve" smooth="yes"/>
      <point x="688" y="1135"/>
      <point x="813" y="958"/>
      <point x="813" y="611" type="curve" smooth="yes"/>
      <point x="813" y="325" type="line" smooth="yes"/>
      <point x="813" y="-47"/>
      <point x="648" y="-298"/>
    </contour>
  </outline>
</glyph>
<glyph name="quotedblx" format="2">
  <advance width="486"/>
  <outline>
    <contour>
      <point x="176" y="1082" type="line"/>
      <point x="124" y="1082" type="line"/>
      <point x="124" y="707" type="line"/>
      <point x="176" y="707" type="line"/>
    </contour>
    <contour>
      <point x="375" y="1082" type="line"/>
      <point x="325" y="1082" type="line"/>
      <point x="325" y="707" type="line"/>
      <point x="375" y="707" type="line"/>
    </contour>
  </outline>
</glyph>
<glyph name="tavdages" format="2">
  <advance width="668"/>
  <outline>
    <contour>
      <point x="531" y="845" type="curve" smooth="yes"/>
      <point x="531" y="760"/>
      <point x="472" y="687"/>
      <point x="344" y="687" type="curve" smooth="yes"/>
      <point x="246" y="687"/>
      <point x="146" y="713"/>
      <point x="137" y="854" type="curve"/>
      <point x="86" y="854" type="line"/>
      <point x="86" y="713"/>
      <point x="177" y="634"/>
      <point x="343" y="634" type="curve" smooth="yes"/>
      <point x="489" y="634"/>
      <point x="582" y="723"/>
      <point x="582" y="845" type="curve"/>
      <point x="582" y="985"/>
      <point x="496" y="1048"/>
      <point x="356" y="1087" type="curve" smooth="yes"/>
      <point x="181" y="1136"/>
      <point x="160" y="1196"/>
      <point x="160" y="1265" type="curve" smooth="yes"/>
      <point x="160" y="1342"/>
      <point x="210" y="1414"/>
      <point x="338" y="1414" type="curve" smooth="yes"/>
      <point x="468" y="1414"/>
      <point x="530" y="1340"/>
      <point x="529" y="1238" type="curve"/>
      <point x="582" y="1238" type="line"/>
      <point x="582" y="1375"/>
      <point x="490" y="1466"/>
      <point x="337" y="1466" type="curve" smooth="yes"/>
      <point x="195" y="1466"/>
      <point x="107" y="1374"/>
      <point x="107" y="1264" type="curve" smooth="yes"/>
      <point x="107" y="1134"/>
      <point x="185" y="1081"/>
      <point x="336" y="1041" type="curve" smooth="yes"/>
      <point x="501" y="997"/>
      <point x="531" y="917"/>
    </contour>
  </outline>
</glyph>
<glyph name="uni02E5_uni02E5_uni02E6" format="2">
  <advance width="977"/>
  <outline>
    <contour>
      <point x="789" y="0" type="line"/>
      <point x="789" y="1456" type="line"/>
      <point x="737" y="1456" type="line"/>
      <point x="737" y="1124" type="line"/>
      <point x="471" y="1456" type="line"/>
      <point x="129" y="1456" type="line"/>
      <point x="129" y="1405" type="line"/>
      <point x="451" y="1405" type="line"/>
      <point x="737" y="1051" type="line"/>
      <point x="737" y="0" type="line"/>
    </contour>
  </outline>
</glyph>
<glyph name="uni02E7_uni02E6_uni02E8" format="2">
  <advance width="977"/>
  <outline>
    <contour>
      <point x="789" y="0" type="line"/>
      <point x="789" y="1456" type="line"/>
      <point x="737" y="1456" type="line"/>
      <point x="737" y="461" type="line"/>
      <point x="467" y="1105" type="line"/>
      <point x="165" y="734" type="line"/>
      <point x="199" y="702" type="line"/>
      <point x="455" y="1022" type="line"/>
      <point x="737" y="352" type="line"/>
      <point x="737" y="0" type="line"/>
    </contour>
  </outline>
</glyph>
<glyph name="uni02E8_uni02E7" format="2">
  <advance width="722"/>
  <outline>
    <contour>
      <point x="534" y="1456" type="line"/>
      <point x="483" y="1456" type="line"/>
      <point x="483" y="752" type="line"/>
      <point x="180" y="382" type="line"/>
      <point x="217" y="350" type="line"/>
      <point x="483" y="681" type="line"/>
      <point x="483" y="0" type="line"/>
      <point x="534" y="0" type="line"/>
    </contour>
  </outline>
</glyph>
<glyph name="uni040A.smcp" format="2">
  <advance width="1611"/>
  <outline>
    <contour>
      <point x="1201" y="675" type="curve" smooth="yes"/>
      <point x="862" y="675" type="line"/>
      <point x="862" y="626" type="line"/>
      <point x="1201" y="626" type="line" smooth="yes"/>
      <point x="1396" y="626"/>
      <point x="1478" y="495"/>
      <point x="1478" y="340" type="curve" smooth="yes"/>
      <point x="1478" y="179"/>
      <point x="1396" y="51"/>
      <point x="1201" y="51" type="curve" smooth="yes"/>
      <point x="894" y="51" type="line"/>
      <point x="894" y="1165" type="line"/>
      <point x="840" y="1165" type="line"/>
      <point x="840" y="0" type="line"/>
      <point x="1201" y="0" type="line" smooth="yes"/>
      <point x="1413" y="0"/>
      <point x="1530" y="133"/>
      <point x="1530" y="338" type="curve" smooth="yes"/>
      <point x="1530" y="544"/>
      <point x="1413" y="675"/>
    </contour>
    <contour>
      <point x="860" y="603" type="line"/>
      <point x="195" y="603" type="line"/>
      <point x="195" y="553" type="line"/>
      <point x="860" y="553" type="line"/>
    </contour>
    <contour>
      <point x="214" y="1165" type="line"/>
      <point x="161" y="1165" type="line"/>
      <point x="161" y="0" type="line"/>
      <point x="214" y="0" type="line"/>
    </contour>
  </outline>
</glyph>
<glyph name="uni1F16B" format="2">
  <advance width="1132"/>
  <outline>
    <contour>
      <point x="335" y="995" type="line"/>
      <point x="180" y="1456" type="line"/>
      <point x="130" y="1456" type="line"/>
      <point x="311" y="919" type="line"/>
      <point x="355" y="919" type="line"/>
      <point x="540" y="1456" type="line"/>
      <point x="490" y="1456" type="line"/>
    </contour>
    <contour>
      <point x="161" y="1456" type="line"/>
      <point x="114" y="1456" type="line"/>
      <point x="114" y="919" type="line"/>
      <point x="161" y="919" type="line"/>
    </contour>
    <contour>
      <point x="503" y="919" type="line"/>
      <point x="551" y="919" type="line"/>
      <point x="551" y="1456" type="line"/>
      <point x="503" y="1456" type="line"/>
    </contour>
    <contour>
      <point x="827" y="919" type="line"/>
      <point x="926" y="919"/>
      <point x="1019" y="988"/>
      <point x="1019" y="1139" type="curve" smooth="yes"/>
      <point x="1019" y="1236" type="line" smooth="yes"/>
      <point x="1019" y="1387"/>
      <point x="926" y="1456"/>
      <point x="827" y="1456" type="curve" smooth="yes"/>
      <point x="693" y="1456" type="line"/>
      <point x="693" y="1402" type="line"/>
      <point x="827" y="1402" type="line" smooth="yes"/>
      <point x="911" y="1402"/>
      <point x="971" y="1351"/>
      <point x="971" y="1236" type="curve" smooth="yes"/>
      <point x="971" y="1139" type="line" smooth="yes"/>
      <point x="971" y="1024"/>
      <point x="911" y="973"/>
      <point x="827" y="973" type="curve" smooth="yes"/>
      <point x="697" y="973" type="line"/>
      <point x="695" y="919" type="line"/>
    </contour>
    <contour>
      <point x="702" y="1456" type="line"/>
      <point x="653" y="1456" type="line"/>
      <point x="653" y="919" type="line"/>
      <point x="702" y="919" type="line"/>
    </contour>
  </outline>
</glyph>
